<?xml version="1.0" encoding="UTF-8"?>
<svg version="1.1" xmlns="http://www.w3.org/2000/svg" width="311" height="311">
<path d="M0 0 C102.63 0 205.26 0 311 0 C311 102.63 311 205.26 311 311 C208.37 311 105.74 311 0 311 C0 208.37 0 105.74 0 0 Z " fill="#732916" transform="translate(0,0)"/>
<path d="M0 0 C0 0.66 0 1.32 0 2 C0.73347656 2.268125 1.46695313 2.53625 2.22265625 2.8125 C10.80309494 6.48121078 15.96813201 12.76346967 20 21 C20.93385816 23.80157448 21.16354595 25.65447803 21.1875 28.5625 C21.20167969 29.34753906 21.21585937 30.13257813 21.23046875 30.94140625 C21 33 21 33 19 35 C16.86699581 35.24888897 16.86699581 35.24888897 14.17259216 35.24723816 C13.15317535 35.25143265 12.13375854 35.25562714 11.08345032 35.25994873 C9.96077255 35.25432922 8.83809479 35.24870972 7.68139648 35.24291992 C6.50252869 35.24481827 5.32366089 35.24671661 4.10906982 35.24867249 C0.87155901 35.25174821 -2.36578455 35.24585782 -5.60327649 35.23571944 C-8.98608071 35.22695078 -12.36888046 35.22869615 -15.75169373 35.2290802 C-21.43206083 35.22814313 -27.11237456 35.21945271 -32.79272461 35.20581055 C-39.3683591 35.19007701 -45.94393515 35.18481268 -52.5195871 35.1855461 C-58.83605867 35.18615557 -65.15251114 35.18105805 -71.46897697 35.17275429 C-74.16155077 35.16921574 -76.8541178 35.16739023 -79.5466938 35.16686058 C-83.30142319 35.16470463 -87.0560776 35.15597683 -90.81079102 35.14526367 C-91.93549301 35.14571686 -93.06019501 35.14617004 -94.21897888 35.14663696 C-95.23557587 35.14237198 -96.25217285 35.13810699 -97.29957581 35.13371277 C-98.18835198 35.13203692 -99.07712816 35.13036108 -99.99283695 35.12863445 C-102 35 -102 35 -103 34 C-103.65085711 27.08275114 -103.38166105 20.24028563 -99.1796875 14.5234375 C-94.48890303 9.11350837 -89.24915725 3.60849998 -83 0 C-81.68 0 -80.36 0 -79 0 C-79 -0.66 -79 -1.32 -79 -2 C-53.61095424 -11.97290853 -24.58303194 -12.95520474 0 0 Z " fill="#762E1B" transform="translate(200,110)"/>
<path d="M0 0 C1.19238785 -0.00700928 2.3847757 -0.01401855 3.61329651 -0.02124023 C6.87584907 -0.03581228 10.13775076 -0.0324205 13.40029335 -0.01972389 C16.818593 -0.00957873 20.23684996 -0.01899376 23.65515137 -0.02526855 C29.39501726 -0.0325406 35.13467712 -0.02296909 40.87451172 -0.00390625 C47.50538314 0.0178619 54.13576257 0.0108102 60.76662207 -0.01121187 C66.46531042 -0.0293787 72.16385088 -0.03191801 77.86255884 -0.0214572 C81.26371478 -0.01522921 84.66463965 -0.01436717 88.06578064 -0.02760315 C91.85799527 -0.03774998 95.64926228 -0.02229156 99.44140625 0 C100.56571548 -0.00809692 101.69002472 -0.01619385 102.84840393 -0.02453613 C110.43954127 0.05822401 110.43954127 0.05822401 114.41320801 2.39489746 C117.27346394 5.75391619 116.97117533 8.36287062 116.77148438 12.61914062 C115.86874438 17.36972981 113.75388858 21.20976047 110.22070312 24.51757812 C104.78086594 26.93227088 99.588225 26.80705347 93.75244141 26.79223633 C92.71102997 26.79734726 91.66961853 26.80245819 90.59664917 26.807724 C87.16137918 26.8215996 83.72631028 26.82066465 80.29101562 26.81835938 C77.89736863 26.82224754 75.50372232 26.82658246 73.1100769 26.8313446 C68.09500898 26.83880255 63.08001146 26.83851868 58.06494141 26.83325195 C51.64692724 26.82745934 45.22920186 26.84438566 38.81123543 26.86759663 C33.86805545 26.88234839 28.92494477 26.88320366 23.98174667 26.8800869 C21.61592919 26.88059943 19.25010776 26.88582429 16.88431168 26.89589882 C13.57193644 26.90827289 10.26012059 26.90146513 6.94775391 26.88989258 C5.97606262 26.89753632 5.00437134 26.90518005 4.00323486 26.91305542 C-1.94115859 26.86728888 -6.36511012 26.0247728 -11.77929688 23.51757812 C-16.32490245 18.88674244 -17.3422484 13.05828865 -17.44335938 6.77929688 C-15.10506452 -1.1846603 -6.6947847 -0.04821375 0 0 Z " fill="#78301E" transform="translate(108.779296875,188.482421875)"/>
<path d="M0 0 C3.65155773 5.35561801 4.75075514 9.28035892 3.875 15.75 C1.97405583 21.18281203 -1.61549915 24.36787436 -6.125 27.75 C-5.32835937 27.84796875 -4.53171875 27.9459375 -3.7109375 28.046875 C3.95653385 29.12890259 8.91637863 30.39156493 14.1875 36.375 C17.51254234 41.05468923 17.45894551 45.12211935 16.875 50.75 C15.00738727 56.85245433 10.22001236 60.620189 4.875 63.75 C-1.37401532 67.02990058 -7.14411036 68.51238265 -14.125 69.3125 C-20.79566861 70.10784895 -26.82088592 71.38881235 -33.125 73.75 C-33.0943042 73.0998291 -33.0636084 72.4496582 -33.03198242 71.77978516 C-32.6489794 62.28487312 -34.50352045 53.06385576 -36.125 43.75 C-37.445 43.75 -38.765 43.75 -40.125 43.75 C-40.125 42.76 -40.125 41.77 -40.125 40.75 C-39.135 40.255 -39.135 40.255 -38.125 39.75 C-38.91050384 29.39375195 -40.01257585 19.07502414 -41.125 8.75 C-43.105 8.75 -45.085 8.75 -47.125 8.75 C-47.125 7.76 -47.125 6.77 -47.125 5.75 C-8.07215144 -5.81194904 -8.07215144 -5.81194904 0 0 Z " fill="#F9F6F5" transform="translate(101.125,15.25)"/>
<path d="M0 0 C1.04657052 -0.00058631 2.09314104 -0.00117262 3.17142582 -0.0017767 C4.3729932 -0.01443066 5.57456059 -0.02708462 6.8125391 -0.04012203 C8.14596318 -0.02880536 9.47938301 -0.01697786 10.8127985 -0.00469112 C12.21560923 -0.00982862 13.61841351 -0.01710862 15.02120304 -0.02637386 C18.83339802 -0.0449201 22.64489541 -0.03192904 26.45706153 -0.01228356 C30.44438784 0.0040813 34.4316692 -0.00470708 38.41901493 -0.00980282 C45.11663317 -0.01432675 51.81397242 0.00156309 58.51152897 0.02948856 C66.25571953 0.06152896 73.99940647 0.0615309 81.74363273 0.04427379 C89.19049454 0.02841021 96.63717165 0.03514196 104.08402538 0.05221081 C107.25423503 0.05908492 110.42429678 0.05804519 113.59450436 0.05066586 C117.32848942 0.0430051 121.06190143 0.05512139 124.79578876 0.08251476 C126.82031062 0.09268879 128.84490126 0.08321339 130.86942387 0.07318974 C132.07381107 0.08591419 133.27819828 0.09863865 134.51908207 0.1117487 C136.08950339 0.11595908 136.08950339 0.11595908 137.69165039 0.12025452 C141.10466524 0.75605272 142.28852773 1.93028826 144.40874577 4.62641239 C144.97515202 7.06391239 144.97515202 7.06391239 144.97124577 9.62641239 C144.99315983 10.47203739 145.01507389 11.31766239 145.03765202 12.18891239 C144.13201409 15.69896248 142.38859145 16.65024938 139.40874577 18.62641239 C136.58421993 19.12977695 136.58421993 19.12977695 133.43679142 19.13434696 C131.64076984 19.15126591 131.64076984 19.15126591 129.808465 19.16852665 C128.50334965 19.16042973 127.19823429 19.1523328 125.85356998 19.14399052 C124.45869561 19.14941338 123.06382697 19.15653697 121.66896915 19.16523075 C117.88804941 19.18344453 114.1075669 19.1764058 110.32663965 19.16371441 C106.36955025 19.15358056 102.41249803 19.16298078 98.45540714 19.16925907 C91.81266912 19.17653267 85.1701091 19.16695362 78.52739811 19.14789677 C70.84450507 19.12611053 63.16203634 19.13319302 55.47915351 19.15520239 C48.88284509 19.17334331 42.28666451 19.17592171 35.69033921 19.16544771 C31.75046557 19.15920782 27.81079153 19.15839094 23.87093067 19.17159367 C20.16895347 19.18313332 16.46752471 19.17516185 12.76560688 19.15201664 C10.75640209 19.14419023 8.747151 19.15610025 6.7379694 19.16852665 C5.54626133 19.15724735 4.35455326 19.14596806 3.12673283 19.13434696 C1.56988679 19.13208481 1.56988679 19.13208481 -0.01841068 19.12977695 C-2.59125423 18.62641239 -2.59125423 18.62641239 -4.42372608 16.73114109 C-5.7467724 14.34605636 -5.99445788 12.90116264 -5.96625423 10.18891239 C-5.97398861 9.44770145 -5.98172298 8.70649052 -5.98969173 7.94281864 C-5.29904369 3.92758051 -4.14736989 1.00258935 0 0 Z " fill="#E7DAD7" transform="translate(89.59125423431396,166.3735876083374)"/>
<path d="M0 0 C3.30949212 1.46755759 5.69957534 3.32111618 8.375 5.75 C9.68210937 6.93142578 9.68210937 6.93142578 11.015625 8.13671875 C13.26584533 10.24572783 15.3831505 12.44988347 17.484375 14.70703125 C18.38857178 15.66174316 18.38857178 15.66174316 19.31103516 16.63574219 C20.50077442 17.89945986 21.67317987 19.17977289 22.82568359 20.47753906 C25.93657704 23.84204841 25.93657704 23.84204841 30.12207031 25.36279297 C32.08499699 25.3418539 34.04507391 25.17827942 36 25 C38.5 26 38.5 26 40 27 C40 27.66 40 28.32 40 29 C40.99 29.3403125 40.99 29.3403125 42 29.6875 C45.2464438 31.10781916 48.06993589 32.8553247 51.03515625 34.78125 C52.9746601 35.98428221 54.94439291 37.01111106 57 38 C56.40316406 38.02964844 55.80632812 38.05929688 55.19140625 38.08984375 C52.68512432 38.8646779 52.68512432 38.8646779 51.40234375 41.87890625 C50.91894531 43.09449219 50.43554688 44.31007812 49.9375 45.5625 C49.68145996 46.20074707 49.42541992 46.83899414 49.16162109 47.49658203 C48.43084835 49.32700262 47.71502384 51.16337014 47 53 C46.47986328 54.20076172 46.47986328 54.20076172 45.94921875 55.42578125 C43.93934914 60.17897999 43.72878434 63.93730763 44 69 C42.68 69.33 41.36 69.66 40 70 C39.79503906 70.83144531 39.59007813 71.66289062 39.37890625 72.51953125 C39.10949219 73.60621094 38.84007813 74.69289063 38.5625 75.8125 C38.29566406 76.89144531 38.02882813 77.97039062 37.75390625 79.08203125 C37.23922588 81.0740843 36.65062825 83.04811524 36 85 C37.485 85.495 37.485 85.495 39 86 C38.505 87.485 38.505 87.485 38 89 C36.35 89 34.7 89 33 89 C33 88.34 33 87.68 33 87 C32.29875 86.896875 31.5975 86.79375 30.875 86.6875 C27.60655835 85.90591613 24.9993382 84.4996691 22 83 C19.26427415 82.30092586 19.26427415 82.30092586 17 82 C17 81.01 17 80.02 17 79 C17.9075 79 18.815 79 19.75 79 C22.97108754 78.35593216 22.97108754 78.35593216 24.18359375 76.43359375 C25.24565676 74.32186535 26.14890858 72.20527243 27 70 C27.30035156 69.23816406 27.60070312 68.47632813 27.91015625 67.69140625 C28.63339418 65.80425984 29.320268 63.90324961 30 62 C29.278125 61.896875 28.55625 61.79375 27.8125 61.6875 C25 61 25 61 22.4375 59.3125 C21.633125 58.879375 20.82875 58.44625 20 58 C16.41606994 59.21167493 14.54968819 61.38875113 12.25 64.3125 C11.63640625 65.07175781 11.0228125 65.83101563 10.390625 66.61328125 C8.808656 69.3284022 8.7157017 70.91098964 9 74 C4.87248551 73.39301257 1.6678852 71.96189209 -2 70 C-2 69.34 -2 68.68 -2 68 C-1.01 67.855625 -0.02 67.71125 1 67.5625 C6.42910197 66.03348761 9.94974281 61.54562718 13 57 C13.20496094 55.67935547 13.20496094 55.67935547 13.4140625 54.33203125 C13.60742188 53.56246094 13.80078125 52.79289062 14 52 C15.66646389 51.33282662 17.33317216 50.66626358 19 50 C21.08884625 47.90818769 22.80712944 45.56126739 24.5625 43.1875 C25.50123824 41.95177442 26.44003925 40.71609651 27.37890625 39.48046875 C28.0443042 38.58980713 28.0443042 38.58980713 28.72314453 37.68115234 C29.87023594 36.17085188 31.07076304 34.70149319 32.27734375 33.23828125 C34.17259053 31.02891457 34.17259053 31.02891457 35 28 C32.6568787 28.25561323 30.32156597 28.59270772 28 29 C27.67 29.66 27.34 30.32 27 31 C26.01 31 25.02 31 24 31 C24 30.34 24 29.68 24 29 C21.03 29.495 21.03 29.495 18 30 C18.23009766 29.03900391 18.23009766 29.03900391 18.46484375 28.05859375 C19.45647223 22.71250517 19.45647223 22.71250517 17.68359375 17.7421875 C15.83767096 15.77267161 14.3942377 14.26084381 12 13 C7.78534409 12.986136 5.54452457 14.918475 2.6015625 17.80273438 C2.11429688 18.30095703 1.62703125 18.79917969 1.125 19.3125 C0.35929687 20.04243164 0.35929687 20.04243164 -0.421875 20.78710938 C-2.06894133 22.38017553 -2.06894133 22.38017553 -4 25 C-4.16602289 27.21207663 -4.16602289 27.21207663 -3 29 C0.47270043 32.39377542 3.08624792 34.56643364 8 35 C6.60667426 38.36720387 5.0210714 39.9859524 2 42 C1.79375 40.948125 1.5875 39.89625 1.375 38.8125 C0.08928406 34.30331051 -2.08771569 32.50386196 -6 30 C-8.00644408 29.91849046 -8.00644408 29.91849046 -10 31 C-12.31353666 33.38898609 -12.31353666 33.38898609 -14.5 36.3125 C-18.72528427 41.73157178 -18.72528427 41.73157178 -21.21875 44.16796875 C-23.23273174 45.9738613 -23.23273174 45.9738613 -24 49 C-29.19453651 47.58330822 -32.66182883 44.07891809 -36 40 C-36 39.34 -36 38.68 -36 38 C-34.9790625 37.7525 -34.9790625 37.7525 -33.9375 37.5 C-30.24859989 35.61630633 -28.26071866 33.13458028 -25.6484375 29.97265625 C-24 28 -24 28 -22.33203125 26.3828125 C-20.69398139 24.68231499 -20.39574868 23.29534233 -20 21 C-18.68 21 -17.36 21 -16 21 C-15.76023437 20.43152344 -15.52046875 19.86304688 -15.2734375 19.27734375 C-13.74154841 16.53779977 -11.88906571 14.73254305 -9.625 12.5625 C-3.73103983 7.01600801 -3.73103983 7.01600801 0 0 Z " fill="#F8F5F4" transform="translate(44,196)"/>
<path d="M0 0 C4.43967057 2.51500464 8.1193087 5.1323284 10 10 C10.92904482 15.202651 10.3112026 19.07891058 7.5 23.5625 C6.6861422 24.72224737 5.85939366 25.87358045 5 27 C7.97851562 26.95117188 7.97851562 26.95117188 10.95703125 26.90234375 C15.82162327 27.13487683 17.83298293 29.57464619 21 33 C23.21402105 35.86336291 25.37930633 38.75585661 27.5234375 41.671875 C30.63264893 44.59472991 32.81291633 44.77587387 37 45 C34.32588891 47.94152219 31.83597391 49.77666149 27.81640625 50.265625 C27.07261719 50.26046875 26.32882812 50.2553125 25.5625 50.25 C24.45068359 50.25773437 24.45068359 50.25773437 23.31640625 50.265625 C19.01491298 49.77236776 16.65698727 48.70795087 13.68359375 45.50390625 C12.94238281 44.53324219 12.20117188 43.56257813 11.4375 42.5625 C7.74051895 37.7284655 7.74051895 37.7284655 3 34 C-0.14484365 33.69318599 -1.97827058 33.99275686 -5 35 C-4.3503125 36.13179688 -3.700625 37.26359375 -3.03125 38.4296875 C-2.18727599 39.91133076 -1.34353819 41.39310858 -0.5 42.875 C-0.07074219 43.62136719 0.35851562 44.36773437 0.80078125 45.13671875 C1.20683594 45.85214844 1.61289063 46.56757813 2.03125 47.3046875 C2.40830078 47.96452637 2.78535156 48.62436523 3.17382812 49.30419922 C4 51 4 51 4 53 C5.32 53 6.64 53 8 53 C8 53.99 8 54.98 8 56 C6.5437455 56.67119549 5.08492133 57.33681807 3.625 58 C2.81289062 58.37125 2.00078125 58.7425 1.1640625 59.125 C-1 60 -1 60 -3 60 C-3 60.66 -3 61.32 -3 62 C-5.475 62.495 -5.475 62.495 -8 63 C-7.89945313 61.72382813 -7.89945313 61.72382813 -7.796875 60.421875 C-8.04194477 56.29339187 -9.26826855 53.86374559 -11.25 50.25 C-11.85328125 49.12078125 -12.4565625 47.9915625 -13.078125 46.828125 C-14.94928675 44.07462681 -15.9129574 43.06543948 -19 42 C-18.87044922 40.78763672 -18.87044922 40.78763672 -18.73828125 39.55078125 C-19.09227356 34.74810951 -20.93166118 31.38100069 -23.1875 27.1875 C-23.57486328 26.41212891 -23.96222656 25.63675781 -24.36132812 24.83789062 C-26.59941647 20.35782203 -26.59941647 20.35782203 -30.80078125 17.98828125 C-31.88939453 17.99408203 -31.88939453 17.99408203 -33 18 C-33 17.01 -33 16.02 -33 15 C-32.49662109 14.72325439 -31.99324219 14.44650879 -31.47460938 14.16137695 C-29.14844214 12.88075899 -26.82421943 11.59664945 -24.5 10.3125 C-23.31277344 9.65991211 -23.31277344 9.65991211 -22.1015625 8.99414062 C-17.5422513 6.4715709 -13.10280397 3.85222345 -8.7578125 0.97412109 C-5.59758189 -0.77717337 -3.49615399 -0.68674453 0 0 Z " fill="#F5F0EF" transform="translate(245,222)"/>
<path d="M0 0 C6.4355235 3.76380617 10.37443975 9.14437045 13 16 C13.29648438 16.71800781 13.59296875 17.43601562 13.8984375 18.17578125 C17.05441486 26.09467858 16.89983824 36.93659895 13.8125 45 C11.42657108 48.94912372 8.64535663 53.09630674 4.11328125 54.64453125 C-1.2549709 55.54750897 -6.18815735 55.76654882 -11.25 53.625 C-15.11994035 49.93096603 -17.50962608 45.70171436 -20 41 C-20.54527344 40.09765625 -21.09054688 39.1953125 -21.65234375 38.265625 C-23.43452878 33.9470549 -23.44041633 30.24775427 -23.375 25.625 C-23.38660156 24.81289063 -23.39820313 24.00078125 -23.41015625 23.1640625 C-23.36919752 14.64464593 -20.99731558 8.14359157 -15 2 C-10.27835928 -0.89326069 -5.35319271 -1.05617045 0 0 Z " fill="#F5F0EE" transform="translate(202,242)"/>
<path d="M0 0 C0 0.66 0 1.32 0 2 C13.2 2 26.4 2 40 2 C40 9.875 40 9.875 38 14 C37.01 14 36.02 14 35 14 C34.7834375 12.2984375 34.7834375 12.2984375 34.5625 10.5625 C34.38828522 7.19222799 34.38828522 7.19222799 33 6 C31.65252916 5.76924918 30.29622435 5.58846937 28.9375 5.4375 C27.638125 5.293125 26.33875 5.14875 25 5 C23.07462365 19.14664923 23.07462365 19.14664923 25 33 C24.34 33 23.68 33 23 33 C23 39.6 23 46.2 23 53 C24.32 53 25.64 53 27 53 C27 53.99 27 54.98 27 56 C20.07 56 13.14 56 6 56 C6 55.01 6 54.02 6 53 C7.98 52.505 7.98 52.505 10 52 C9.99476318 51.30849854 9.98952637 50.61699707 9.98413086 49.90454102 C9.963425 46.79053648 9.95036037 43.67654639 9.9375 40.5625 C9.92912109 39.47388672 9.92074219 38.38527344 9.91210938 37.26367188 C9.90888672 36.22919922 9.90566406 35.19472656 9.90234375 34.12890625 C9.89710693 33.17056885 9.89187012 32.21223145 9.88647461 31.22485352 C10 29 10 29 11 28 C11.08713831 26.29227642 11.10700007 24.58101351 11.09765625 22.87109375 C11.09443359 21.83662109 11.09121094 20.80214844 11.08789062 19.73632812 C11.07951172 18.64771484 11.07113281 17.55910156 11.0625 16.4375 C11.05798828 15.34501953 11.05347656 14.25253906 11.04882812 13.12695312 C11.03699826 10.41791505 11.02051543 7.70898401 11 5 C8.66705225 4.95758277 6.33297433 4.95907063 4 5 C2.50256881 6.49743119 2.66797307 7.98824239 2.4375 10.0625 C2.293125 11.361875 2.14875 12.66125 2 14 C-0.64 13.67 -3.28 13.34 -6 13 C-6.33 9.37 -6.66 5.74 -7 2 C-9.95489444 2.5497478 -12.23197057 3.18256517 -14.3359375 5.421875 C-18.52561855 11.66636777 -20.71314587 18.89651171 -23 26 C-23.23847656 26.721875 -23.47695312 27.44375 -23.72265625 28.1875 C-25.58889567 34.60183401 -25.64600598 41.36726991 -26 48 C-21.40286293 48.3257683 -21.40286293 48.3257683 -17.1875 46.9375 C-15.46342659 44.12453812 -14.7812393 41.18505255 -14 38 C-12.68 38 -11.36 38 -10 38 C-10.40137545 43.61925626 -12.17974459 46.08656763 -16 50 C-16.66 50 -17.32 50 -18 50 C-18 50.66 -18 51.32 -18 52 C-24.10117632 52.42815272 -28.25976347 52.07209292 -33 48 C-36.99938062 42.36603165 -37.63606388 36.74294646 -37.75 30 C-37.77964844 29.12988281 -37.80929688 28.25976562 -37.83984375 27.36328125 C-37.90975408 25.24266784 -37.95723116 23.12133437 -38 21 C-37.01 21 -36.02 21 -35 21 C-34.7525 19.845 -34.505 18.69 -34.25 17.5 C-32.03041159 8.89529426 -28.77325297 3.61287497 -21 -1 C-13.98802587 -3.33732471 -7.00317732 -1.6072866 0 0 Z " fill="#F9F6F6" transform="translate(135,244)"/>
<path d="M0 0 C6.49105663 0.34773518 12.25201678 1.90325186 18.39453125 3.90966797 C26.82940552 6.64471915 35.41157005 8.80621626 44 11 C43.29120484 15.85834353 42.03597876 19.57395923 40 24 C39.01 24 38.02 24 37 24 C37 20.7 37 17.4 37 14 C35.55625 13.525625 34.1125 13.05125 32.625 12.5625 C30.32269949 11.80602983 28.16782371 11.08391186 26 10 C24.00039988 9.960008 21.99952758 9.95653201 20 10 C19.75765625 10.84820312 19.5153125 11.69640625 19.265625 12.5703125 C16.84375 21.046875 14.421875 29.5234375 12 38 C14.24932227 38.1954625 16.49950142 38.38108226 18.75 38.5625 C20.00296875 38.66691406 21.2559375 38.77132812 22.546875 38.87890625 C26.1280817 39.16375339 26.1280817 39.16375339 30 38 C29.505 42.95 29.505 42.95 29 48 C28.01 48 27.02 48 26 48 C26 47.01 26 46.02 26 45 C21.02638346 43.24265549 16.2584002 41.67415387 11 41 C10.896875 41.886875 10.79375 42.77375 10.6875 43.6875 C10.18282002 47.33900806 9.3194218 50.8598927 8.4375 54.4375 C7.25811519 59.48038679 6.41580351 63.83959766 7 69 C10.16240582 71.10827055 11.50657469 71.33817465 15.1875 71.625 C16.08855469 71.69976562 16.98960937 71.77453125 17.91796875 71.8515625 C18.94857422 71.92503906 18.94857422 71.92503906 20 72 C20 71.34 20 70.68 20 70 C20.763125 69.54625 21.52625 69.0925 22.3125 68.625 C25.07651455 67.18518394 25.07651455 67.18518394 26.625 64.8125 C27.07875 64.214375 27.5325 63.61625 28 63 C28.99 63 29.98 63 31 63 C30.5188509 68.77378925 28.81532819 72.95859836 26 78 C19.99779168 77.60529696 15.55812085 76.39574174 10 74 C7.38885329 73.41452193 4.77321635 72.97300074 2.1328125 72.5390625 C-3.61593496 71.54987653 -9.30271215 70.24758128 -15 69 C-15 68.34 -15 67.68 -15 67 C-13.68 67 -12.36 67 -11 67 C-10.89042969 66.41734375 -10.78085938 65.8346875 -10.66796875 65.234375 C-9.52549877 59.32696922 -8.12000497 53.55395131 -6.48828125 47.76171875 C-5.77499149 43.72735186 -6.72349678 40.82950965 -8 37 C-7.38382813 36.80535156 -6.76765625 36.61070313 -6.1328125 36.41015625 C-2.95891912 34.31166631 -2.79377716 32.07786498 -1.875 28.4375 C-1.71032227 27.78579834 -1.54564453 27.13409668 -1.37597656 26.46264648 C0.46796641 18.74455846 1.26623481 10.88797582 2 3 C1.34 3 0.68 3 0 3 C0 2.01 0 1.02 0 0 Z " fill="#FAF7F7" transform="translate(223,11)"/>
<path d="M0 0 C1.83691406 -0.01836914 1.83691406 -0.01836914 3.7109375 -0.03710938 C10.8181694 -0.04852356 17.36469973 0.40285117 24.25 2.1875 C25.49265625 2.50847656 26.7353125 2.82945313 28.015625 3.16015625 C37.52048344 6.13308843 45.18677192 10.36867562 53.25 16.1875 C53.9821875 16.703125 54.714375 17.21875 55.46875 17.75 C61.12352163 22.11508687 65.00400131 28.44950394 67.25 35.1875 C67.39497123 37.3509168 67.47070175 39.51942931 67.5 41.6875 C67.52578125 42.8321875 67.5515625 43.976875 67.578125 45.15625 C67.25 48.1875 67.25 48.1875 65.859375 50.09375 C64.25 51.1875 64.25 51.1875 62.25 51.1875 C62.25 51.8475 62.25 52.5075 62.25 53.1875 C46.28193612 53.30427831 30.31401065 53.39246088 14.34562302 53.44656086 C6.93127929 53.47234764 -0.48279918 53.5075067 -7.89697266 53.56469727 C-14.35884773 53.61451836 -20.82053073 53.64678758 -27.28259254 53.65794247 C-30.70463064 53.66446364 -34.12611922 53.6797985 -37.54798126 53.71615028 C-41.36728339 53.75231384 -45.18543773 53.75745034 -49.00488281 53.75512695 C-50.14064255 53.77310333 -51.27640228 53.79107971 -52.44657898 53.80960083 C-60.0895117 53.75911031 -60.0895117 53.75911031 -63.44866943 50.85197449 C-66.36401323 44.88280771 -65.72580084 37.68371104 -63.97265625 31.40234375 C-58.36756989 18.81583309 -46.20931899 10.23359213 -33.65722656 5.37792969 C-22.35497199 1.37772237 -11.98262222 0.00622797 0 0 Z M-36.75 11.1875 C-36.75 11.8475 -36.75 12.5075 -36.75 13.1875 C-37.74 13.249375 -37.74 13.249375 -38.75 13.3125 C-46.75118589 15.64617922 -53.80408366 23.16141433 -58.625 29.75 C-61.13057474 35.17874528 -61.17203374 41.29144042 -60.75 47.1875 C-59.12037197 48.81712803 -57.29964339 48.31697012 -55.04957581 48.32121277 C-54.03297882 48.32547775 -53.01638184 48.32974274 -51.96897888 48.33413696 C-50.84427689 48.33368378 -49.71957489 48.33323059 -48.56079102 48.33276367 C-46.7951178 48.33780159 -46.7951178 48.33780159 -44.99377441 48.34294128 C-41.75618931 48.35083684 -38.51864261 48.35412022 -35.28104901 48.35475707 C-32.58211801 48.3557046 -29.88319322 48.35938109 -27.1842646 48.36292917 C-20.81872205 48.37108118 -14.45319365 48.37351272 -8.08764648 48.37280273 C-1.5126002 48.37220177 5.06236408 48.38275555 11.6373896 48.3985464 C17.2747656 48.41160486 22.91211475 48.41698735 28.54950577 48.41634732 C31.91983262 48.41609183 35.29008664 48.41897106 38.66039848 48.42952538 C42.41746802 48.43926792 46.17432388 48.43646998 49.93139648 48.43041992 C51.05407425 48.43603943 52.17675201 48.44165894 53.33345032 48.44744873 C54.35286713 48.44325424 55.37228394 48.43905975 56.42259216 48.43473816 C57.31174537 48.43528293 58.20089857 48.43582769 59.11699581 48.43638897 C61.4651453 48.38594744 61.4651453 48.38594744 63.25 46.1875 C64.30892359 37.9808422 61.75025701 32.02827123 57.25 25.1875 C53.54472625 21.09219743 49.2031373 17.66406865 44.25 15.1875 C43.59 15.1875 42.93 15.1875 42.25 15.1875 C42.25 14.5275 42.25 13.8675 42.25 13.1875 C18.06045898 0.43966413 -11.75412524 0.75489973 -36.75 11.1875 Z " fill="#ECE2E0" transform="translate(157.75,96.8125)"/>
<path d="M0 0 C2.43758009 -0.027526 4.87483541 -0.04708568 7.3125 -0.0625 C7.98345703 -0.07087891 8.65441406 -0.07925781 9.34570312 -0.08789062 C14.284196 -0.11107604 19.11364733 0.26246788 24.02661133 0.74389648 C29.40418589 1.20707702 34.79461251 1.36978404 40.1875 1.5625 C41.90163086 1.62727539 41.90163086 1.62727539 43.65039062 1.69335938 C46.43350811 1.79816296 49.21669465 1.90033299 52 2 C51.85966535 3.42620042 51.71411372 4.85188805 51.56640625 6.27734375 C51.48592041 7.07132568 51.40543457 7.86530762 51.32250977 8.68334961 C50.91562483 11.60608326 50.05717987 14.25133235 49 17 C47.68 17 46.36 17 45 17 C45 13.37 45 9.74 45 6 C41.04 6 37.08 6 33 6 C32.49232197 9.4781989 31.99367563 12.95730915 31.5 16.4375 C31.35691406 17.41138672 31.21382812 18.38527344 31.06640625 19.38867188 C29.10246405 30.11097634 29.10246405 30.11097634 32 40 C31.01 40.66 30.02 41.32 29 42 C28.48987435 44.61196291 28.48987435 44.61196291 28.48828125 47.6640625 C28.45283203 48.78554688 28.41738281 49.90703125 28.38085938 51.0625 C28.35830078 52.238125 28.33574219 53.41375 28.3125 54.625 C28.27833984 55.80835938 28.24417969 56.99171875 28.20898438 58.2109375 C28.12629425 61.1405306 28.05721286 64.0698164 28 67 C29.65 67 31.3 67 33 67 C33 67.99 33 68.98 33 70 C24.09 69.67 15.18 69.34 6 69 C6 68.01 6 67.02 6 66 C8.475 65.505 8.475 65.505 11 65 C13.35148459 53.04444956 13.35148459 53.04444956 13 41 C12.01 40.34 11.02 39.68 10 39 C11 36 11 36 14 34 C14.59908052 31.9018916 14.59908052 31.9018916 14.73046875 29.45703125 C14.81103516 28.54759766 14.89160156 27.63816406 14.97460938 26.70117188 C15.04486328 25.74791016 15.11511719 24.79464844 15.1875 23.8125 C15.26935547 22.87857422 15.35121094 21.94464844 15.43554688 20.98242188 C15.85443769 15.98037275 16.19695186 11.01887671 16 6 C14.96593327 4.74050951 14.96593327 4.74050951 12.71484375 4.90234375 C10.14322917 4.93489583 7.57161458 4.96744792 5 5 C4.34 8.3 3.68 11.6 3 15 C1.68 15 0.36 15 -1 15 C-1.02703381 13.06257659 -1.04641125 11.12504521 -1.0625 9.1875 C-1.07410156 8.10855469 -1.08570313 7.02960937 -1.09765625 5.91796875 C-1 3 -1 3 0 0 Z " fill="#F8F5F4" transform="translate(157,6)"/>
<path d="M0 0 C1.17087158 -0.00281982 2.34174316 -0.00563965 3.5480957 -0.00854492 C4.83908676 -0.00652069 6.13007782 -0.00449646 7.46018982 -0.00241089 C8.82830349 -0.00376534 10.1964168 -0.00554552 11.56452942 -0.00772095 C15.2854429 -0.01228966 19.00632873 -0.01050813 22.72724271 -0.00734186 C26.61453913 -0.00481589 30.50183313 -0.00715642 34.38912964 -0.00872803 C40.91688972 -0.01054881 47.44463849 -0.00814558 53.97239685 -0.00338745 C61.52959522 0.00205727 69.08676663 0.00029062 76.64396435 -0.00521386 C83.12294991 -0.00974487 89.60192733 -0.01039566 96.08091396 -0.00777519 C99.95475039 -0.00621264 103.82857412 -0.00601808 107.70240974 -0.00931168 C111.34259307 -0.0121903 114.98274146 -0.01021488 118.62292099 -0.00441742 C120.60391949 -0.00245426 122.58492093 -0.00544365 124.56591797 -0.00854492 C126.31799561 -0.00431519 126.31799561 -0.00431519 128.10546875 0 C129.6377403 0.00056554 129.6377403 0.00056554 131.20096684 0.0011425 C133.48924255 0.12698364 133.48924255 0.12698364 134.48924255 1.12698364 C134.61424255 4.12698364 134.61424255 4.12698364 134.48924255 7.12698364 C133.48924255 8.12698364 133.48924255 8.12698364 131.16414547 8.25003147 C129.60585443 8.24864878 129.60585443 8.24864878 128.01608276 8.24723816 C126.23442719 8.24930016 126.23442719 8.24930016 124.41677856 8.25140381 C122.44449028 8.24601089 122.44449028 8.24601089 120.43235779 8.24050903 C119.04306541 8.24022716 117.65377288 8.24038489 116.26448059 8.24095154 C112.48158967 8.24123952 108.69873018 8.23534265 104.91584659 8.22837758 C100.96668579 8.22214419 97.01752434 8.22154026 93.06835938 8.22035217 C85.5849918 8.21723881 78.10163877 8.20902536 70.61827761 8.19900268 C62.10088522 8.18784169 53.58349215 8.18233113 45.06609428 8.17730725 C27.54046862 8.16684275 10.01485712 8.14924322 -7.51075745 8.12698364 C-7.51075745 5.81698364 -7.51075745 3.50698364 -7.51075745 1.12698364 C-4.88372853 -0.18653082 -2.94300712 0.00108582 0 0 Z " fill="#742A17" transform="translate(95.51075744628906,171.87301635742188)"/>
<path d="M0 0 C1.09731445 0.00676758 1.09731445 0.00676758 2.21679688 0.01367188 C3.99873419 0.02531852 5.78062863 0.04324809 7.5625 0.0625 C7.5625 1.0525 7.5625 2.0425 7.5625 3.0625 C6.2425 3.0625 4.9225 3.0625 3.5625 3.0625 C3.70361868 6.52104214 3.85128309 9.97927691 4 13.4375 C4.03931641 14.40300781 4.07863281 15.36851563 4.11914062 16.36328125 C4.22911477 28.55120978 4.22911477 28.55120978 7.5625 40.0625 C7.2325 40.3925 6.9025 40.7225 6.5625 41.0625 C5.79942302 50.20167783 6.66089411 60.35768233 9.5625 69.0625 C-0.3375 70.0525 -0.3375 70.0525 -10.4375 71.0625 C-9.7775 69.7425 -9.1175 68.4225 -8.4375 67.0625 C-7.68257358 58.56637889 -7.05817175 46.61061047 -11.4375 39.0625 C-10.7775 39.0625 -10.1175 39.0625 -9.4375 39.0625 C-9.83709718 27.60900524 -10.28171438 16.3437471 -12.4375 5.0625 C-13.4275 4.7325 -14.4175 4.4025 -15.4375 4.0625 C-15.4375 3.0725 -15.4375 2.0825 -15.4375 1.0625 C-10.23576905 0.19440561 -5.26771184 -0.06265348 0 0 Z " fill="#F9F6F6" transform="translate(135.4375,6.9375)"/>
<path d="M0 0 C1.19238785 -0.00700928 2.3847757 -0.01401855 3.61329651 -0.02124023 C6.87584907 -0.03581228 10.13775076 -0.0324205 13.40029335 -0.01972389 C16.818593 -0.00957873 20.23684996 -0.01899376 23.65515137 -0.02526855 C29.39501726 -0.0325406 35.13467712 -0.02296909 40.87451172 -0.00390625 C47.50538314 0.0178619 54.13576257 0.0108102 60.76662207 -0.01121187 C66.46531042 -0.0293787 72.16385088 -0.03191801 77.86255884 -0.0214572 C81.26371478 -0.01522921 84.66463965 -0.01436717 88.06578064 -0.02760315 C91.85799527 -0.03774998 95.64926228 -0.02229156 99.44140625 0 C100.56571548 -0.00809692 101.69002472 -0.01619385 102.84840393 -0.02453613 C110.43954127 0.05822401 110.43954127 0.05822401 114.41320801 2.39489746 C117.27346394 5.75391619 116.97117533 8.36287062 116.77148438 12.61914062 C115.86874438 17.36972981 113.75388858 21.20976047 110.22070312 24.51757812 C104.78086594 26.93227088 99.588225 26.80705347 93.75244141 26.79223633 C92.71102997 26.79734726 91.66961853 26.80245819 90.59664917 26.807724 C87.16137918 26.8215996 83.72631028 26.82066465 80.29101562 26.81835938 C77.89736863 26.82224754 75.50372232 26.82658246 73.1100769 26.8313446 C68.09500898 26.83880255 63.08001146 26.83851868 58.06494141 26.83325195 C51.64692724 26.82745934 45.22920186 26.84438566 38.81123543 26.86759663 C33.86805545 26.88234839 28.92494477 26.88320366 23.98174667 26.8800869 C21.61592919 26.88059943 19.25010776 26.88582429 16.88431168 26.89589882 C13.57193644 26.90827289 10.26012059 26.90146513 6.94775391 26.88989258 C5.97606262 26.89753632 5.00437134 26.90518005 4.00323486 26.91305542 C-1.94115859 26.86728888 -6.36511012 26.0247728 -11.77929688 23.51757812 C-16.32490245 18.88674244 -17.3422484 13.05828865 -17.44335938 6.77929688 C-15.10506452 -1.1846603 -6.6947847 -0.04821375 0 0 Z M-11.77929688 5.51757812 C-12.63203472 12.0319361 -11.57343623 16.20578302 -7.77929688 21.51757812 C-4.60754478 23.63207952 -3.86551 23.76634942 -0.24250793 23.75808716 C0.687173 23.76083649 1.61685394 23.76358582 2.57470703 23.76641846 C3.59250244 23.75922791 4.61029785 23.75203735 5.65893555 23.74462891 C7.26893181 23.74506699 7.26893181 23.74506699 8.91145325 23.74551392 C12.46644111 23.7441183 16.02122053 23.728546 19.57617188 23.71289062 C22.0381102 23.70916132 24.50005001 23.70631396 26.96199036 23.70431519 C33.44754114 23.69667222 39.93300261 23.67701796 46.41851807 23.65490723 C53.03420809 23.63446313 59.64991251 23.62531654 66.265625 23.61523438 C79.25068919 23.59377275 92.23569141 23.56001221 105.22070312 23.51757812 C105.71570313 22.03257812 105.71570313 22.03257812 106.22070312 20.51757812 C106.86007813 20.20820313 107.49945313 19.89882812 108.15820312 19.58007812 C110.28869482 18.66759101 110.28869482 18.66759101 111.47070312 16.89257812 C112.60581513 13.29805679 112.46395376 10.28796302 112.22070312 6.51757812 C110.43584843 4.31913069 110.43584843 4.31913069 108.08769894 4.26868916 C107.19854573 4.26923392 106.30939253 4.26977869 105.39329529 4.27033997 C103.86417007 4.26404823 103.86417007 4.26404823 102.30415344 4.25762939 C101.18147568 4.2632489 100.05879791 4.26886841 98.90209961 4.2746582 C97.72323181 4.27275986 96.54436401 4.27086151 95.32977295 4.26890564 C92.09226213 4.26582992 88.85491857 4.2717203 85.61742663 4.28185868 C82.23462242 4.29062735 78.85182266 4.28888198 75.4690094 4.28849792 C69.7886423 4.289435 64.10832856 4.29812542 58.42797852 4.31176758 C51.85234403 4.32750112 45.27676798 4.33276545 38.70111603 4.33203202 C32.38464445 4.33142256 26.06819199 4.33652007 19.75172615 4.34482384 C17.05915236 4.34836238 14.36658533 4.3501879 11.67400932 4.35071754 C7.91927994 4.35287349 4.16462553 4.36160129 0.40991211 4.37231445 C-0.71478989 4.37186127 -1.83949188 4.37140808 -2.99827576 4.37094116 C-4.52317123 4.37733864 -4.52317123 4.37733864 -6.07887268 4.38386536 C-6.96764886 4.3855412 -7.85642504 4.38721704 -8.77213383 4.38894367 C-10.77748487 4.2956211 -10.77748487 4.2956211 -11.77929688 5.51757812 Z " fill="#F3EEEC" transform="translate(108.779296875,188.482421875)"/>
<path d="M0 0 C0.7734375 -0.00773437 1.546875 -0.01546875 2.34375 -0.0234375 C5.01056642 0.4693438 5.86181317 1.2473549 7.5 3.375 C9.41257609 9.11272828 9.96998061 16.2722557 7.3359375 21.83203125 C5.83675618 23.84247184 4.27861733 25.60887881 2.5 27.375 C2.00113281 27.9009375 1.50226563 28.426875 0.98828125 28.96875 C-0.14292333 30.1356086 -1.31655004 31.26116474 -2.5 32.375 C-1.84 32.045 -1.18 31.715 -0.5 31.375 C4.0519362 30.77864352 8.55776304 30.35240881 12.7109375 32.5390625 C17.1731305 36.21048712 19.20833698 39.66524709 19.8359375 45.49609375 C19.96878423 56.77478094 19.96878423 56.77478094 15.5 61.375 C14.84 61.375 14.18 61.375 13.5 61.375 C13.17 62.365 12.84 63.355 12.5 64.375 C4.27586207 64.99568966 4.27586207 64.99568966 1.625 62.875 C-1.26148522 56.46058839 -3.02308899 50.61679541 -3.88671875 43.66796875 C-3.99345413 42.86192703 -4.10018951 42.05588531 -4.2101593 41.22541809 C-4.43224822 39.53100556 -4.64965014 37.83597263 -4.86254883 36.14038086 C-5.18553215 33.57811125 -5.52616419 31.01864581 -5.86914062 28.45898438 C-8.47032628 8.62412973 -8.47032628 8.62412973 -7.5 3.375 C-5.18905381 0.44774721 -3.70625672 -0.03706257 0 0 Z " fill="#742E1C" transform="translate(83.5,16.625)"/>
<path d="M0 0 C-0.13921875 1.69189453 -0.13921875 1.69189453 -0.28125 3.41796875 C-0.28125 8.79908969 1.94990268 12.69092722 4.5 17.3125 C5.34888097 18.88917532 6.19286661 20.46849895 7.03125 22.05078125 C7.59682617 23.08199097 7.59682617 23.08199097 8.17382812 24.1340332 C9 26 9 26 9 29 C10.65 29 12.3 29 14 29 C13.89171875 29.70640625 13.7834375 30.4128125 13.671875 31.140625 C14.13550449 35.18082485 16.42276199 37.08102977 19.25 39.75 C19.74113281 40.24371094 20.23226562 40.73742187 20.73828125 41.24609375 C23.32467204 43.76351412 25.32923212 45.61544337 29 46 C27.5611898 49.387199 25.77880501 51.3594104 23 53.75 C21.948125 54.67039062 21.948125 54.67039062 20.875 55.609375 C19 57 19 57 17 57 C15.98576997 55.34195439 14.98863456 53.67343344 14 52 C12.5724297 50.3699934 11.09076488 48.7859964 9.5625 47.25 C8.80066406 46.47140625 8.03882813 45.6928125 7.25390625 44.890625 C5.05117363 43.04292554 3.80455769 42.38331085 1 42 C1 40.68 1 39.36 1 38 C0.44054687 37.86464844 -0.11890625 37.72929687 -0.6953125 37.58984375 C-7.50354725 35.76190934 -13.43809734 32.8643907 -19.60546875 29.5234375 C-23.14170803 27.93640261 -26.15805728 27.36125001 -30 27 C-30 26.34 -30 25.68 -30 25 C-28.4609375 23.703125 -28.4609375 23.703125 -26.375 22.25 C-23.54263343 20.21109782 -21.03850465 18.14603703 -18.625 15.625 C-17.75875 14.75875 -16.8925 13.8925 -16 13 C-15.34 13 -14.68 13 -14 13 C-14 14.65 -14 16.3 -14 18 C-11.69 18.99 -9.38 19.98 -7 21 C-7 21.66 -7 22.32 -7 23 C-6.38511719 23.20496094 -5.77023437 23.40992188 -5.13671875 23.62109375 C-1.7578125 24.74739583 1.62109375 25.87369792 5 27 C4.75765625 26.49549316 4.5153125 25.99098633 4.265625 25.47119141 C3.17307673 23.19102216 2.08647624 20.90806831 1 18.625 C0.6184375 17.8309375 0.236875 17.036875 -0.15625 16.21875 C-0.5171875 15.45820313 -0.878125 14.69765625 -1.25 13.9140625 C-1.58515625 13.2123291 -1.9203125 12.5105957 -2.265625 11.78759766 C-3 10 -3 10 -3 8 C-4.65 8 -6.3 8 -8 8 C-6.48291727 4.46014029 -4.24676932 0 0 0 Z " fill="#F7F3F2" transform="translate(276,191)"/>
<path d="M0 0 C2.52518451 1.11671506 4.653789 2.5110584 7 4 C9.46823091 4.82704005 9.46823091 4.82704005 12 5 C13.093125 5.12375 14.18625 5.2475 15.3125 5.375 C19.04927947 4.99498853 19.91178339 4.57026951 22.8125 2.5 C27.35739693 -0.62738522 31.61733257 -0.86964865 37 0 C40.75903614 1.51807229 40.75903614 1.51807229 42 4 C45.61853458 5.39174407 49.18168491 5.37557198 53 5 C55.18342863 3.89085113 55.18342863 3.89085113 57.375 2.5 C61.98115954 -0.24959524 65.70315418 -1.08653248 71 0 C73.514823 1.13116536 75.65746161 2.5133891 78 4 C80.46823091 4.82704005 80.46823091 4.82704005 83 5 C84.093125 5.12375 85.18625 5.2475 86.3125 5.375 C90.04927947 4.99498853 90.91178339 4.57026951 93.8125 2.5 C98.35739693 -0.62738522 102.61733257 -0.86964865 108 0 C111.75903614 1.51807229 111.75903614 1.51807229 113 4 C116.81643021 5.52657208 120.97181556 5.19181831 125 5 C125.99 4.34 126.98 3.68 128 3 C130.1875 3.375 130.1875 3.375 132 4 C132 4.99 132 5.98 132 7 C126.33564576 10.29562428 121.61244548 12.41112152 115 11 C113.00390625 9.87109375 113.00390625 9.87109375 111.0625 8.5 C107.11337676 5.72215981 103.9784432 5.32829605 99.19921875 5.5625 C96.14454694 6.17017894 94.84942459 7.55875954 93 10 C87.72830637 11.75723121 82.28848779 11.80025656 77.125 9.625 C74 8 74 8 71 6 C64.77985188 5.40190883 60.44732777 7.09252487 55.05859375 10.07421875 C51.42606218 11.70782403 47.89090762 11.66461606 44 11 C41.98828125 9.87890625 41.98828125 9.87890625 40.0625 8.5 C36.11337676 5.72215981 32.9784432 5.32829605 28.19921875 5.5625 C25.14454694 6.17017894 23.84942459 7.55875954 22 10 C16.85526722 11.71491093 10.72090282 12.34866241 5.74609375 9.8828125 C4.43290473 8.9730886 3.1278708 8.05145879 1.83203125 7.1171875 C-2.79115155 4.29793317 -8.94709885 6.17503655 -14 7 C-14 5.68 -14 4.36 -14 3 C-9.92993863 -0.67618447 -5.20491248 -0.84065597 0 0 Z " fill="#E5D8D5" transform="translate(100,153)"/>
<path d="M0 0 C4.54394294 0.53458152 7.29512312 2.39870347 11 5 C12.3191582 5.69429379 13.64649406 6.37530495 15 7 C14.40316406 7.02964844 13.80632812 7.05929688 13.19140625 7.08984375 C10.68512432 7.8646779 10.68512432 7.8646779 9.40234375 10.87890625 C8.91894531 12.09449219 8.43554688 13.31007812 7.9375 14.5625 C7.68145996 15.20074707 7.42541992 15.83899414 7.16162109 16.49658203 C6.43084835 18.32700262 5.71502384 20.16337014 5 22 C4.65324219 22.80050781 4.30648437 23.60101563 3.94921875 24.42578125 C1.93934914 29.17897999 1.72878434 32.93730763 2 38 C0.02 38.495 0.02 38.495 -2 39 C-2.20496094 39.83144531 -2.40992187 40.66289062 -2.62109375 41.51953125 C-2.89050781 42.60621094 -3.15992187 43.69289063 -3.4375 44.8125 C-3.70433594 45.89144531 -3.97117187 46.97039062 -4.24609375 48.08203125 C-4.76077412 50.0740843 -5.34937175 52.04811524 -6 54 C-4.515 54.495 -4.515 54.495 -3 55 C-3.33 55.99 -3.66 56.98 -4 58 C-5.65 58 -7.3 58 -9 58 C-9 57.34 -9 56.68 -9 56 C-9.70125 55.896875 -10.4025 55.79375 -11.125 55.6875 C-14.39344165 54.90591613 -17.0006618 53.4996691 -20 52 C-22.73572585 51.30092586 -22.73572585 51.30092586 -25 51 C-25 50.01 -25 49.02 -25 48 C-24.0925 48 -23.185 48 -22.25 48 C-19.00426701 47.35655517 -19.00426701 47.35655517 -17.78125 45.328125 C-16.74956286 43.2491191 -15.85050656 41.15897819 -15 39 C-14.5875 38.0925 -14.175 37.185 -13.75 36.25 C-12.78918149 33.76282918 -12.78918149 33.76282918 -13 30 C-12.01 30 -11.02 30 -10 30 C-9.89429687 28.99839844 -9.78859375 27.99679688 -9.6796875 26.96484375 C-9.09991081 22.91962991 -7.71778157 19.30684066 -6.125 15.5625 C-5.58272672 14.25025051 -5.04105471 12.93775239 -4.5 11.625 C-4.005 10.42875 -3.51 9.2325 -3 8 C-1.9730711 5.34206638 -0.98254195 2.67469754 0 0 Z " fill="#F6F2F1" transform="translate(86,227)"/>
<path d="M0 0 C0.350625 1.19625 0.70125 2.3925 1.0625 3.625 C2.7577534 8.78482465 5.15187197 13.50161611 7.66235352 18.30126953 C10 22.80632426 10 22.80632426 10 25 C11.32 25.66 12.64 26.32 14 27 C13.34 27 12.68 27 12 27 C12.6496875 28.13179688 13.299375 29.26359375 13.96875 30.4296875 C14.81272401 31.91133076 15.65646181 33.39310858 16.5 34.875 C16.92925781 35.62136719 17.35851562 36.36773437 17.80078125 37.13671875 C18.20683594 37.85214844 18.61289063 38.56757813 19.03125 39.3046875 C19.40830078 39.96452637 19.78535156 40.62436523 20.17382812 41.30419922 C21 43 21 43 21 45 C22.32 45 23.64 45 25 45 C25 45.99 25 46.98 25 48 C23.5437455 48.67119549 22.08492133 49.33681807 20.625 50 C19.81289062 50.37125 19.00078125 50.7425 18.1640625 51.125 C16 52 16 52 14 52 C14 52.66 14 53.32 14 54 C11.525 54.495 11.525 54.495 9 55 C9.10054687 53.72382813 9.10054687 53.72382813 9.203125 52.421875 C8.95805523 48.29339187 7.73173145 45.86374559 5.75 42.25 C5.14671875 41.12078125 4.5434375 39.9915625 3.921875 38.828125 C2.05071325 36.07462681 1.0870426 35.06543948 -2 34 C-1.87044922 32.78763672 -1.87044922 32.78763672 -1.73828125 31.55078125 C-2.09227356 26.74810951 -3.93166118 23.38100069 -6.1875 19.1875 C-6.57486328 18.41212891 -6.96222656 17.63675781 -7.36132812 16.83789062 C-9.59941647 12.35782203 -9.59941647 12.35782203 -13.80078125 9.98828125 C-14.88939453 9.99408203 -14.88939453 9.99408203 -16 10 C-16 9.01 -16 8.02 -16 7 C-14.25318707 6.01515892 -12.5024149 5.03733813 -10.75 4.0625 C-9.28820312 3.24458984 -9.28820312 3.24458984 -7.796875 2.41015625 C-5.25668887 1.12941995 -2.8895486 0 0 0 Z " fill="#F6F2F1" transform="translate(228,230)"/>
<path d="M0 0 C9.9 0 19.8 0 30 0 C30 0.33 30 0.66 30 1 C27.36 1 24.72 1 22 1 C20.06379024 15.6524513 20.06379024 15.6524513 22 30 C21.34 30 20.68 30 20 30 C20 36.6 20 43.2 20 50 C21.32 50 22.64 50 24 50 C24 50.99 24 51.98 24 53 C17.07 53 10.14 53 3 53 C3 52.01 3 51.02 3 50 C4.98 49.505 4.98 49.505 7 49 C6.99476318 48.30849854 6.98952637 47.61699707 6.98413086 46.90454102 C6.963425 43.79053648 6.95036037 40.67654639 6.9375 37.5625 C6.92912109 36.47388672 6.92074219 35.38527344 6.91210938 34.26367188 C6.90888672 33.22919922 6.90566406 32.19472656 6.90234375 31.12890625 C6.89448853 29.69140015 6.89448853 29.69140015 6.88647461 28.22485352 C7 26 7 26 8 25 C8.08713831 23.29227642 8.10700007 21.58101351 8.09765625 19.87109375 C8.09443359 18.83662109 8.09121094 17.80214844 8.08789062 16.73632812 C8.07951172 15.64771484 8.07113281 14.55910156 8.0625 13.4375 C8.05798828 12.34501953 8.05347656 11.25253906 8.04882812 10.12695312 C8.03699826 7.41791505 8.02051543 4.70898401 8 2 C5.36 1.67 2.72 1.34 0 1 C0 0.67 0 0.34 0 0 Z " fill="#F7F3F2" transform="translate(138,247)"/>
<path d="M0 0 C3.9642844 3.25952273 7.54400216 6.57602912 11.02197266 10.35839844 C15.04912996 14.9375927 15.04912996 14.9375927 20.34375 17.63671875 C22.69332384 17.59566414 22.69332384 17.59566414 26 17 C28.5 18 28.5 18 30 19 C30 19.66 30 20.32 30 21 C31.32 21.66 32.64 22.32 34 23 C33.34 23 32.68 23 32 23 C31.86078125 23.5671875 31.7215625 24.134375 31.578125 24.71875 C29.68021637 32.20779487 27.170949 39.24975956 24.0859375 46.3359375 C23.17678161 48.56631273 22.500924 50.65122302 22 53 C19.9375 53.75 19.9375 53.75 17 54 C15.25 53.10546875 15.25 53.10546875 13.4375 51.9375 C12.303125 51.298125 11.16875 50.65875 10 50 C6.39837278 51.10819299 4.53190959 53.41135426 2.25 56.3125 C1.63640625 57.07175781 1.0228125 57.83101563 0.390625 58.61328125 C-1.191344 61.3284022 -1.2842983 62.91098964 -1 66 C-5.12751449 65.39301257 -8.3321148 63.96189209 -12 62 C-12 61.34 -12 60.68 -12 60 C-11.01 59.855625 -10.02 59.71125 -9 59.5625 C-3.57089803 58.03348761 -0.05025719 53.54562718 3 49 C3.13664062 48.11957031 3.27328125 47.23914063 3.4140625 46.33203125 C3.60742188 45.56246094 3.80078125 44.79289062 4 44 C5.66646389 43.33282662 7.33317216 42.66626358 9 42 C11.08884625 39.90818769 12.80712944 37.56126739 14.5625 35.1875 C15.50123824 33.95177442 16.44003925 32.71609651 17.37890625 31.48046875 C17.82250488 30.88669434 18.26610352 30.29291992 18.72314453 29.68115234 C19.87023594 28.17085188 21.07076304 26.70149319 22.27734375 25.23828125 C24.17259053 23.02891457 24.17259053 23.02891457 25 20 C22.6568787 20.25561323 20.32156597 20.59270772 18 21 C17.67 21.66 17.34 22.32 17 23 C16.01 23 15.02 23 14 23 C14 22.34 14 21.68 14 21 C12.02 21.33 10.04 21.66 8 22 C8.15339844 21.35933594 8.30679688 20.71867187 8.46484375 20.05859375 C9.49663678 14.72856625 9.49663678 14.72856625 7.61328125 9.84765625 C4.92554538 7.18245904 2.14974938 5.09983292 -1 3 C-0.67 2.01 -0.34 1.02 0 0 Z " fill="#EEE6E4" transform="translate(54,204)"/>
<path d="M0 0 C3.10187831 5.76063116 5.11443465 11.22471583 6.6875 17.5625 C7.00557617 18.77969727 7.00557617 18.77969727 7.33007812 20.02148438 C8.99631156 26.53398665 10.13459409 32.94587117 10.25 39.6875 C10.27578125 40.59886719 10.3015625 41.51023437 10.328125 42.44921875 C9.94397067 45.43556137 8.97732722 46.77810862 7 49 C4.8125 48.9375 4.8125 48.9375 2 48 C-2.92008621 42.34812881 -4.60766294 36.64879722 -6.3125 29.4375 C-6.5695874 28.37571533 -6.8266748 27.31393066 -7.09155273 26.2199707 C-8.83392542 18.64004311 -10.55709849 10.76135137 -9 3 C-6.43524573 -0.53966087 -4.21692237 -0.28112816 0 0 Z " fill="#773220" transform="translate(198,245)"/>
<path d="M0 0 C4.40541839 -0.56873229 8.3244772 -0.92863722 12.3046875 1.27734375 C16.99714443 5.18182206 19.78219613 9.36442108 22 15 C22.29777344 15.71929687 22.59554687 16.43859375 22.90234375 17.1796875 C26.06761733 25.14392425 25.92563082 36.06487002 22.6875 44.125 C21.02851778 46.95141416 19.58274505 48.98223043 17 51 C16.01 51 15.02 51 14 51 C14.04640625 50.14921875 14.0928125 49.2984375 14.140625 48.421875 C14.57191705 33.94278467 12.77312056 15.59708969 5 3 C2.45486391 1.61758994 2.45486391 1.61758994 0 1 C0 0.67 0 0.34 0 0 Z " fill="#F9F6F5" transform="translate(193,243)"/>
<path d="M0 0 C3.52695432 2.53940711 5.3012301 5.06793347 7 9 C7.85578252 14.38346909 7.26098587 18.83961173 4.2890625 23.42578125 C2.14499467 26.04414287 -0.29590028 27.97192521 -3 30 C2.94 30.99 2.94 30.99 9 32 C5.16432171 32.95891957 2.17718859 33.10177189 -1.75 33.0625 C-2.92046875 33.05347656 -4.0909375 33.04445312 -5.296875 33.03515625 C-6.18890625 33.02355469 -7.0809375 33.01195312 -8 33 C-8 32.34 -8 31.68 -8 31 C-8.66 31 -9.32 31 -10 31 C-10 31.99 -10 32.98 -10 34 C-8.68 34.33 -7.36 34.66 -6 35 C-11.445 35.495 -11.445 35.495 -17 36 C-15.86222014 32.58666042 -14.40433498 31.57003639 -11.5703125 29.4765625 C-8.52307742 26.6112519 -7.12619338 23.99964951 -6.6015625 19.84375 C-6.60929687 18.7403125 -6.61703125 17.636875 -6.625 16.5 C-6.61726563 15.3965625 -6.60953125 14.293125 -6.6015625 13.15625 C-7.04971077 9.60621275 -7.68380181 7.72962712 -10 5 C-12.5821207 4.21817393 -12.5821207 4.21817393 -15.4375 4.25 C-18.7845689 4.12249261 -21.77730085 3.94471559 -25 3 C-16.83088678 0.78643384 -8.49322297 -1.41118166 0 0 Z " fill="#F7F3F2" transform="translate(98,13)"/>
<path d="M0 0 C38.94 0 77.88 0 118 0 C118 0.33 118 0.66 118 1 C113.71 1 109.42 1 105 1 C105 1.66 105 2.32 105 3 C104.41992188 3.09796875 103.83984375 3.1959375 103.2421875 3.296875 C99.15210005 4.07979603 96.37236648 4.74679079 92.875 7.125 C89.24017705 9.49553671 87.27704845 9.45021563 83 9 C79.4118507 8.19575964 76.57892545 7.35300333 73.4375 5.4375 C70.61653679 3.77385503 68.22940375 3.37551206 65 3 C65 2.34 65 1.68 65 1 C43.55 1 22.1 1 0 1 C0 0.67 0 0.34 0 0 Z " fill="#793421" transform="translate(100,150)"/>
<path d="M0 0 C4.53957291 4.17149943 5.76282089 8.89927075 6.4375 14.875 C6.33607818 19.65104594 4.11150438 23.45477076 1 27 C0.34 27 -0.32 27 -1 27 C-2.32805745 24.50724524 -3.63722261 22.00720152 -4.9375 19.5 C-5.31068359 18.80390625 -5.68386719 18.1078125 -6.06835938 17.390625 C-8.57397683 12.51482887 -9.71940226 8.4925516 -10 3 C-7.94157569 -1.11684861 -4.12874222 -0.57947259 0 0 Z " fill="#75301E" transform="translate(239,228)"/>
<path d="M0 0 C1.50168326 0.32566625 3.00234679 0.65627631 4.5 1 C4.5 1.66 4.5 2.32 4.5 3 C17.7 3 30.9 3 44.5 3 C44.5 10.875 44.5 10.875 42.5 15 C41.51 15 40.52 15 39.5 15 C39.355625 13.865625 39.21125 12.73125 39.0625 11.5625 C38.88828522 8.19222799 38.88828522 8.19222799 37.5 7 C36.15252916 6.76924918 34.79622435 6.58846937 33.4375 6.4375 C32.138125 6.293125 30.83875 6.14875 29.5 6 C29.5 5.67 29.5 5.34 29.5 5 C22.57 5 15.64 5 8.5 5 C7.84 8.3 7.18 11.6 6.5 15 C3.86 14.67 1.22 14.34 -1.5 14 C-1.83 10.37 -2.16 6.74 -2.5 3 C-5.6895143 2.20262142 -8.50245153 1.73661631 -11.75 1.4375 C-13.08804688 1.31181641 -13.08804688 1.31181641 -14.453125 1.18359375 C-15.12859375 1.12300781 -15.8040625 1.06242188 -16.5 1 C-11.32779219 -2.44813854 -5.82973297 -1.15767747 0 0 Z " fill="#E5D9D6" transform="translate(130.5,243)"/>
<path d="M0 0 C0.66 0 1.32 0 2 0 C0.36071251 7.5167329 -1.8245605 14.4542244 -4.9140625 21.50390625 C-6.06679128 24.05289089 -6.06679128 24.05289089 -7 27 C-8.4589426 26.52269162 -9.91713496 26.04308958 -11.375 25.5625 C-12.18710938 25.29566406 -12.99921875 25.02882812 -13.8359375 24.75390625 C-16 24 -16 24 -18 23 C-17.53433467 18.66413836 -14.69689288 16.17998091 -11.8125 13.1875 C-10.80889136 12.1246455 -9.8062808 11.06084765 -8.8046875 9.99609375 C-8.3209668 9.4841748 -7.83724609 8.97225586 -7.33886719 8.44482422 C-5.63323261 6.60420689 -4.03080373 4.6881232 -2.4375 2.75 C-1.633125 1.8425 -0.82875 0.935 0 0 Z " fill="#75301F" transform="translate(83,229)"/>
<path d="M0 0 C3.9642844 3.25952273 7.54400216 6.57602912 11.02197266 10.35839844 C15.04912996 14.9375927 15.04912996 14.9375927 20.34375 17.63671875 C22.69332384 17.59566414 22.69332384 17.59566414 26 17 C28.5 18 28.5 18 30 19 C27.50907189 20.24546405 26.58919267 19.7767578 24 19 C24 19.33 24 19.66 24 20 C23.030625 20.12375 22.06125 20.2475 21.0625 20.375 C20.051875 20.58125 19.04125 20.7875 18 21 C17.67 21.66 17.34 22.32 17 23 C16.01 23 15.02 23 14 23 C14 22.34 14 21.68 14 21 C12.02 21.33 10.04 21.66 8 22 C8.15339844 21.35933594 8.30679688 20.71867187 8.46484375 20.05859375 C9.49663678 14.72856625 9.49663678 14.72856625 7.61328125 9.84765625 C4.92554538 7.18245904 2.14974938 5.09983292 -1 3 C-0.67 2.01 -0.34 1.02 0 0 Z " fill="#EEE6E4" transform="translate(54,204)"/>
<path d="M0 0 C0.99 0 1.98 0 3 0 C2.5188509 5.77378925 0.81532819 9.95859836 -2 15 C-11.7393675 14.39649218 -11.7393675 14.39649218 -15 11 C-15.33 10.34 -15.66 9.68 -16 9 C-13.36 9 -10.72 9 -8 9 C-8 8.34 -8 7.68 -8 7 C-7.236875 6.54625 -6.47375 6.0925 -5.6875 5.625 C-2.92348545 4.18518394 -2.92348545 4.18518394 -1.375 1.8125 C-0.92125 1.214375 -0.4675 0.61625 0 0 Z " fill="#F1EAE9" transform="translate(251,74)"/>
<path d="M0 0 C-0.59104765 4.84659077 -1.97944157 8.60748167 -4 13 C-4.99 13 -5.98 13 -7 13 C-7 9.7 -7 6.4 -7 3 C-12.63345791 1.06349884 -18.20339563 -0.62989351 -24 -2 C-24 -2.33 -24 -2.66 -24 -3 C-15.9020153 -5.2775582 -7.78906308 -2.27658277 0 0 Z " fill="#EBE2DF" transform="translate(267,22)"/>
<path d="M0 0 C-0.0928125 1.12664062 -0.185625 2.25328125 -0.28125 3.4140625 C-0.28125 8.80966716 1.95400304 12.73409863 4.5 17.375 C5.34687694 18.96448374 6.1907841 20.55555452 7.03125 22.1484375 C7.40830078 22.84114746 7.78535156 23.53385742 8.17382812 24.24755859 C9 26 9 26 9 28 C6.625 28.625 6.625 28.625 4 29 C3.34 28.34 2.68 27.68 2 27 C2.99 27 3.98 27 5 27 C4.75765625 26.49549316 4.5153125 25.99098633 4.265625 25.47119141 C3.17307673 23.19102216 2.08647624 20.90806831 1 18.625 C0.6184375 17.8309375 0.236875 17.036875 -0.15625 16.21875 C-0.5171875 15.45820313 -0.878125 14.69765625 -1.25 13.9140625 C-1.58515625 13.2123291 -1.9203125 12.5105957 -2.265625 11.78759766 C-3 10 -3 10 -3 8 C-4.65 8 -6.3 8 -8 8 C-6.48291727 4.46014029 -4.24676932 0 0 0 Z " fill="#D7C3BE" transform="translate(276,191)"/>
<path d="M0 0 C0.89203125 0.08378906 1.7840625 0.16757812 2.703125 0.25390625 C3.87359375 0.35574219 5.0440625 0.45757812 6.25 0.5625 C7.99023438 0.71912109 7.99023438 0.71912109 9.765625 0.87890625 C13.16336931 1.15654336 13.16336931 1.15654336 17 0 C16.67 3.3 16.34 6.6 16 10 C15.01 10 14.02 10 13 10 C13 9.01 13 8.02 13 7 C8.02638346 5.24265549 3.2584002 3.67415387 -2 3 C-1.34 2.67 -0.68 2.34 0 2 C0 1.34 0 0.68 0 0 Z " fill="#DFD0CC" transform="translate(236,49)"/>
<path d="M0 0 C1.32 0 2.64 0 4 0 C3.59862455 5.61925626 1.82025541 8.08656763 -2 12 C-2.66 12 -3.32 12 -4 12 C-4 12.66 -4 13.32 -4 14 C-12.57142857 14.28571429 -12.57142857 14.28571429 -16 12 C-14 11 -14 11 -11.625 11.5625 C-8.53241486 12.07793086 -7.56889983 11.71259989 -5 10 C-1.50036337 7.44257323 -0.99984077 4.07627392 0 0 Z " fill="#E8DDDA" transform="translate(121,282)"/>
<path d="M0 0 C1.56621094 -0.00193359 1.56621094 -0.00193359 3.1640625 -0.00390625 C4.78441406 0.00189453 4.78441406 0.00189453 6.4375 0.0078125 C7.51773438 0.00394531 8.59796875 0.00007813 9.7109375 -0.00390625 C10.75507813 -0.00261719 11.79921875 -0.00132813 12.875 0 C13.82246094 0.00112793 14.76992187 0.00225586 15.74609375 0.00341797 C18.40508753 0.13125421 20.84582307 0.54074837 23.4375 1.1328125 C23.4375 1.4628125 23.4375 1.7928125 23.4375 2.1328125 C15.8475 2.1328125 8.2575 2.1328125 0.4375 2.1328125 C0.7675 3.4528125 1.0975 4.7728125 1.4375 6.1328125 C-0.2125 6.1328125 -1.8625 6.1328125 -3.5625 6.1328125 C-3.5625 4.8128125 -3.5625 3.4928125 -3.5625 2.1328125 C-5.8725 2.1328125 -8.1825 2.1328125 -10.5625 2.1328125 C-10.5625 1.8028125 -10.5625 1.4728125 -10.5625 1.1328125 C-6.98132712 0.31469973 -3.67054234 0.00436969 0 0 Z " fill="#AD8378" transform="translate(153.5625,100.8671875)"/>
<path d="M0 0 C0.0270043 1.45823212 0.04639787 2.91660675 0.0625 4.375 C0.07410156 5.18710938 0.08570313 5.99921875 0.09765625 6.8359375 C0 9 0 9 -1 11 C-1.99 11 -2.98 11 -4 11 C-4.144375 9.865625 -4.28875 8.73125 -4.4375 7.5625 C-4.61171478 4.19222799 -4.61171478 4.19222799 -6 3 C-7.34747084 2.76924918 -8.70377565 2.58846937 -10.0625 2.4375 C-11.361875 2.293125 -12.66125 2.14875 -14 2 C-14 1.67 -14 1.34 -14 1 C-9.27616037 0.34843591 -4.78025483 -0.11950637 0 0 Z " fill="#EDE5E3" transform="translate(174,247)"/>
<path d="M0 0 C0.556875 0.7425 1.11375 1.485 1.6875 2.25 C5.31565367 6.56456112 8.27348441 9.34554108 14 10 C12.60667426 13.36720387 11.0210714 14.9859524 8 17 C7.835 15.96875 7.67 14.9375 7.5 13.875 C6.12866857 8.85019605 2.20678847 6.67082152 -2 4 C-1.34 3.67 -0.68 3.34 0 3 C0 2.01 0 1.02 0 0 Z " fill="#E6DBD8" transform="translate(38,221)"/>
<path d="M0 0 C0 3.63 0 7.26 0 11 C-0.99 11.495 -0.99 11.495 -2 12 C-2.33 10.68 -2.66 9.36 -3 8 C-4.65 8 -6.3 8 -8 8 C-6.48291727 4.46014029 -4.24676932 0 0 0 Z " fill="#DDCCC8" transform="translate(276,191)"/>
<path d="M0 0 C0.66 0.33 1.32 0.66 2 1 C4.00781522 0.96761588 6.01562993 0.93519878 8.0234375 0.90234375 C10.40887491 1.02020133 12.01914436 1.67942957 14 3 C11.50907189 4.24546405 10.58919267 3.7767578 8 3 C8 3.33 8 3.66 8 4 C7.030625 4.12375 6.06125 4.2475 5.0625 4.375 C3.5465625 4.684375 3.5465625 4.684375 2 5 C1.67 5.66 1.34 6.32 1 7 C0.01 7 -0.98 7 -2 7 C-2 6.34 -2 5.68 -2 5 C-2.66 4.67 -3.32 4.34 -4 4 C-2.68 2.68 -1.36 1.36 0 0 Z " fill="#C6AAA3" transform="translate(70,220)"/>
<path d="M0 0 C0.33 0.66 0.66 1.32 1 2 C0.30132812 1.97679687 -0.39734375 1.95359375 -1.1171875 1.9296875 C-2.02726562 1.91164063 -2.93734375 1.89359375 -3.875 1.875 C-4.77992187 1.85179687 -5.68484375 1.82859375 -6.6171875 1.8046875 C-9.18806994 1.75675164 -9.18806994 1.75675164 -11 4 C-14.2578125 4.1953125 -14.2578125 4.1953125 -18.125 4.125 C-20.04699219 4.09792969 -20.04699219 4.09792969 -22.0078125 4.0703125 C-23.48894531 4.03550781 -23.48894531 4.03550781 -25 4 C-19.32341875 -1.67658125 -7.46007969 -0.23434805 0 0 Z " fill="#C5A8A0" transform="translate(98,13)"/>
<path d="M0 0 C0.66 0 1.32 0 2 0 C1.55170486 1.98146451 1.09107502 3.96014211 0.625 5.9375 C0.36976562 7.03964844 0.11453125 8.14179688 -0.1484375 9.27734375 C-0.42945312 10.17582031 -0.71046875 11.07429687 -1 12 C-1.99 12.495 -1.99 12.495 -3 13 C-2.67 10.69 -2.34 8.38 -2 6 C-2.99 6.99 -3.98 7.98 -5 9 C-5.66 8.67 -6.32 8.34 -7 8 C-5.88200014 6.66079162 -4.75538103 5.32877444 -3.625 4 C-2.68527344 2.88625 -2.68527344 2.88625 -1.7265625 1.75 C-1.15679687 1.1725 -0.58703125 0.595 0 0 Z " fill="#8E5A4D" transform="translate(83,229)"/>
<path d="M0 0 C4.13621084 3.3810038 7.81316569 6.66590534 11 11 C8 11 8 11 6.5 9.7578125 C6.005 9.21898437 5.51 8.68015625 5 8.125 C3.02823946 5.99919566 1.4666314 4.64442093 -1 3 C-0.67 2.01 -0.34 1.02 0 0 Z " fill="#E7DCD9" transform="translate(54,204)"/>
<path d="M0 0 C1.46067199 0.45082469 2.91848032 0.91093537 4.375 1.375 C5.18710938 1.63023437 5.99921875 1.88546875 6.8359375 2.1484375 C9 3 9 3 11 5 C8.39517051 5.94721072 6.69325299 6.30222393 4.109375 5.17578125 C2.37417127 4.17063275 0.68359577 3.0893855 -1 2 C-0.67 1.34 -0.34 0.68 0 0 Z " fill="#D1BBB5" transform="translate(65,252)"/>
<path d="M0 0 C0.66 0.433125 1.32 0.86625 2 1.3125 C2 1.6425 2 1.9725 2 2.3125 C0.88625 2.539375 -0.2275 2.76625 -1.375 3 C-5.16038373 3.91873658 -5.16038373 3.91873658 -6.4375 6.9375 C-6.7159375 8.113125 -6.7159375 8.113125 -7 9.3125 C-7.28875 8.673125 -7.5775 8.03375 -7.875 7.375 C-8.82823451 5.16043921 -8.82823451 5.16043921 -11 4.3125 C-3.9452954 -0.9041302 -3.9452954 -0.9041302 0 0 Z " fill="#D5C1BB" transform="translate(236,225.6875)"/>
<path d="M0 0 C0.66 0.99 1.32 1.98 2 3 C1.01 3.33 0.02 3.66 -1 4 C-1 4.66 -1 5.32 -1 6 C-9.57142857 6.28571429 -9.57142857 6.28571429 -13 4 C-11 3 -11 3 -8.625 3.5625 C-5.56241114 4.07293148 -4.55278148 3.67251201 -2 2 C-1.34 1.34 -0.68 0.68 0 0 Z " fill="#C8AEA8" transform="translate(118,290)"/>
<path d="M0 0 C0.845625 0.144375 1.69125 0.28875 2.5625 0.4375 C6.03593149 1.0058797 9.51445662 1.51202393 13 2 C13 2.33 13 2.66 13 3 C7.76528314 3.75612577 3.22745859 4.2063366 -2 3 C-1.34 2.67 -0.68 2.34 0 2 C0 1.34 0 0.68 0 0 Z " fill="#E5D9D6" transform="translate(236,49)"/>
<path d="M0 0 C0.99 0 1.98 0 3 0 C2.67 2.31 2.34 4.62 2 7 C1.34 6.01 0.68 5.02 0 4 C-0.5775 4.680625 -1.155 5.36125 -1.75 6.0625 C-2.4925 6.701875 -3.235 7.34125 -4 8 C-6.25 7.75 -6.25 7.75 -8 7 C-7.236875 6.5875 -6.47375 6.175 -5.6875 5.75 C-2.93814514 4.18124382 -2.93814514 4.18124382 -1.375 1.8125 C-0.694375 0.9153125 -0.694375 0.9153125 0 0 Z " fill="#D7C3BD" transform="translate(251,74)"/>
<path d="M0 0 C8.57142857 -0.28571429 8.57142857 -0.28571429 12 2 C12 2.99 12 3.98 12 5 C10.35 5 8.7 5 7 5 C7 3.68 7 2.36 7 1 C4.69 1 2.38 1 0 1 C0 0.67 0 0.34 0 0 Z " fill="#B79288" transform="translate(143,102)"/>
<path d="M0 0 C1.43836751 0.11458693 2.87570966 0.24209116 4.3125 0.375 C5.51326172 0.47941406 5.51326172 0.47941406 6.73828125 0.5859375 C9 1 9 1 12 3 C9.03 2.67 6.06 2.34 3 2 C3 4.31 3 6.62 3 9 C2.67 9 2.34 9 2 9 C2 7.02 2 5.04 2 3 C1.34 3 0.68 3 0 3 C0 2.01 0 1.02 0 0 Z " fill="#CAB0A9" transform="translate(223,11)"/>
<path d="M0 0 C1.06089844 0.07863281 2.12179688 0.15726563 3.21484375 0.23828125 C6.0625 0.6875 6.0625 0.6875 9.0625 2.6875 C3.4525 2.6875 -2.1575 2.6875 -7.9375 2.6875 C-7.9375 2.0275 -7.9375 1.3675 -7.9375 0.6875 C-5.15288966 -0.70480517 -3.08802401 -0.25078498 0 0 Z " fill="#C7ADA6" transform="translate(97.9375,43.3125)"/>
<path d="M0 0 C0.66 0.33 1.32 0.66 2 1 C-0.97 3.97 -3.94 6.94 -7 10 C-7.33 9.34 -7.66 8.68 -8 8 C-5.58443874 4.80800833 -3.31996462 2.25283313 0 0 Z " fill="#DCCAC6" transform="translate(112,244)"/>
<path d="M0 0 C0.598125 0.763125 1.19625 1.52625 1.8125 2.3125 C3.46959332 4.3483575 5.10297674 6.1978279 7 8 C6.01 8.33 5.02 8.66 4 9 C1.7363436 7.59554165 -0.0208685 5.8032087 -2 4 C-1.34 3.67 -0.68 3.34 0 3 C0 2.01 0 1.02 0 0 Z " fill="#DBCAC6" transform="translate(38,221)"/>
<path d="M0 0 C-3.33333333 2.66666667 -6.66666667 5.33333333 -10 8 C-7.95662621 2.18424383 -6.49689233 -0.52677505 0 0 Z " fill="#8B5648" transform="translate(128,246)"/>
<path d="M0 0 C-1.5830577 4.2742558 -4.50568404 6.26531794 -8 9 C-6.68994234 5.06982701 -4.75047804 0 0 0 Z " fill="#DDCCC7" transform="translate(189,244)"/>
<path d="M0 0 C0.33 0.99 0.66 1.98 1 3 C-0.98 4.98 -2.96 6.96 -5 9 C-5.66 8.67 -6.32 8.34 -7 8 C-4.69 5.36 -2.38 2.72 0 0 Z " fill="#864E3F" transform="translate(75,238)"/>
<path d="M0 0 C0 4 0 4 -1.375 5.75 C-3 7 -3 7 -5 7 C-5.33 5.68 -5.66 4.36 -6 3 C-2.25 0 -2.25 0 0 0 Z " fill="#E6D9D5" transform="translate(116,107)"/>
<path d="M0 0 C0.66 0 1.32 0 2 0 C0.55746343 3.36591866 -1.33264727 5.51047079 -4 8 C-4.66 7.67 -5.32 7.34 -6 7 C-5.04882866 5.8274869 -4.08882991 4.66212985 -3.125 3.5 C-2.59132812 2.8503125 -2.05765625 2.200625 -1.5078125 1.53125 C-0.76144531 0.77328125 -0.76144531 0.77328125 0 0 Z " fill="#854E3F" transform="translate(62,253)"/>
<path d="M0 0 C-0.99 0.495 -0.99 0.495 -2 1 C-1.67 1.66 -1.34 2.32 -1 3 C-2.98 3 -4.96 3 -7 3 C-7 2.01 -7 1.02 -7 0 C-3.86650268 -1.04449911 -3.01031744 -0.93423645 0 0 Z " fill="#DDCCC7" transform="translate(61,21)"/>
<path d="M0 0 C1.9375 0.375 1.9375 0.375 4 1 C4.33 1.66 4.66 2.32 5 3 C2.23735711 3.59732819 -0.16032769 4 -3 4 C-2.01 2.68 -1.02 1.36 0 0 Z " fill="#864F40" transform="translate(35,225)"/>
</svg>
