<?xml version="1.0" encoding="UTF-8"?>
<svg version="1.1" xmlns="http://www.w3.org/2000/svg" width="512" height="512">
<path d="M0 0 C3.47864511 3.23100385 6.86776541 6.53702235 10.21704102 9.90136719 C11.68841739 11.37591937 13.17271493 12.83655629 14.65820312 14.296875 C20.80445226 20.40218788 26.1473909 26.80318072 31 34 C31.41354736 34.6069873 31.82709473 35.21397461 32.25317383 35.83935547 C42.80316511 51.69803648 50.06288438 69.72184858 54.75 88.125 C54.94867676 88.89932373 55.14735352 89.67364746 55.35205078 90.47143555 C58.36607707 102.89557735 59.38185184 115.24871921 59.3125 128 C59.31034485 128.7182193 59.3081897 129.4364386 59.30596924 130.17642212 C59.07872019 177.6458582 42.17232325 217.97499556 9.53955078 252.37695312 C8.52892892 253.44238512 7.52195992 254.51129641 6.51904297 255.58398438 C-19.00861226 282.79299972 -59.84981161 301.75508503 -97.21118164 303.20849609 C-101.84926047 303.32868105 -106.48568629 303.33336323 -111.125 303.3125 C-111.94326263 303.31100952 -112.76152527 303.30951904 -113.60458374 303.3079834 C-125.6472653 303.26851899 -137.23311337 302.7522648 -149 300 C-150.37233958 299.70676784 -151.74473593 299.4138013 -153.1171875 299.12109375 C-186.82650803 291.59708659 -215.6238293 272.90263666 -240 249 C-240.91700684 248.12565308 -240.91700684 248.12565308 -241.85253906 247.23364258 C-246.05767167 243.16603415 -249.54400179 238.86658701 -252.875 234.0625 C-253.38820801 233.32741211 -253.90141602 232.59232422 -254.43017578 231.83496094 C-274.95062135 201.97659566 -286.46988703 167.19718845 -286.3125 130.875 C-286.30976578 129.86536194 -286.30976578 129.86536194 -286.30697632 128.83532715 C-286.25482436 117.33063828 -285.45244748 106.24843038 -283 95 C-282.83371094 94.22333984 -282.66742188 93.44667969 -282.49609375 92.64648438 C-277.23663222 68.90098954 -267.15222996 46.1049856 -252 27 C-251.32710937 26.13632813 -250.65421875 25.27265625 -249.9609375 24.3828125 C-240.28547845 12.24450933 -230.08916676 1.31899498 -217.54589844 -7.86279297 C-216.22442559 -8.83490613 -214.92603233 -9.8382619 -213.6328125 -10.84765625 C-150.70199943 -58.21373085 -58.08133677 -50.01793238 0 0 Z M-198 0 C-198.59731934 0.42651855 -199.19463867 0.85303711 -199.81005859 1.29248047 C-236.2458012 27.42823969 -260.20559131 62.27009865 -267.68359375 106.94921875 C-270.89163905 129.18429136 -269.54020075 152.48857805 -263 174 C-262.8045459 174.66 -262.6090918 175.32 -262.40771484 176 C-257.05358637 193.69116319 -248.16051584 210.29876393 -237 225 C-236.35675781 225.85335937 -235.71351563 226.70671875 -235.05078125 227.5859375 C-233.08864966 230.10924668 -231.06772016 232.56250507 -229 235 C-227.78570312 236.43472656 -227.78570312 236.43472656 -226.546875 237.8984375 C-215.87419351 250.18373853 -203.15022998 259.12621561 -189 267 C-188.25024902 267.42200684 -187.50049805 267.84401367 -186.72802734 268.27880859 C-166.56528853 279.55317809 -145.2631017 286.2485234 -122 287 C-120.9790625 287.03996094 -119.958125 287.07992188 -118.90625 287.12109375 C-75.48614587 287.9834089 -35.14580744 271.41534887 -3.66796875 241.63671875 C16.92182994 221.288089 30.87281252 196.06466876 38.3125 168.1875 C38.56749268 167.23254639 38.82248535 166.27759277 39.08520508 165.29370117 C49.1031068 125.90909471 39.62402359 83.14308914 19.33984375 48.7421875 C12.93727452 38.27794646 4.7848865 29.23031727 -3.67041016 20.39697266 C-4.79981752 19.21032761 -5.90814969 18.00368044 -7.01171875 16.79296875 C-29.85124456 -7.53286026 -68.03697779 -23.7689054 -101.05419922 -25.12548828 C-135.20228247 -26.10735052 -169.6633214 -20.48096572 -198 0 Z " fill="#FEFEFE" transform="translate(370,136)"/>
<path d="M0 0 C1.42529039 -0.00457107 2.85057858 -0.00987937 4.27586365 -0.0158844 C7.24869804 -0.02477187 10.22126315 -0.02244127 13.1940918 -0.01245117 C16.98574798 -0.00094464 20.7764751 -0.0212198 24.56800938 -0.05036831 C27.50646264 -0.06879191 30.44469549 -0.0684261 33.38319206 -0.06273079 C34.78050989 -0.06257844 36.17784349 -0.06855039 37.57510567 -0.08102226 C47.28490199 -0.15552558 53.29584582 0.60839972 61.05859375 6.68359375 C65.46406411 12.38479069 65.48027781 19.34271403 65.45825195 26.27709961 C65.46336288 27.1221254 65.46847382 27.96715118 65.47373962 28.83778381 C65.48754533 31.60807542 65.48668581 34.37811575 65.484375 37.1484375 C65.48826662 39.08842561 65.49260224 41.02841287 65.49736023 42.96839905 C65.50480285 47.02575447 65.50454519 51.08302285 65.49926758 55.14038086 C65.49347271 60.32292037 65.51041399 65.50510251 65.53361225 70.68758297 C65.54838935 74.69147298 65.54921593 78.69527769 65.54610252 82.69919014 C65.54661364 84.60923534 65.55181177 86.51928557 65.56191444 88.42930412 C65.57434026 91.10666601 65.56745092 93.78334132 65.5559082 96.46069336 C65.56355194 97.23863251 65.57119568 98.01657166 65.57907104 98.81808472 C65.4959759 107.59938627 63.04291891 114.49006907 56.87109375 120.74609375 C56.17983398 121.49342773 56.17983398 121.49342773 55.47460938 122.25585938 C51.52834429 126.41068923 47.67563629 130.24899801 41.80859375 130.68359375 C40.94234375 130.60109375 40.07609375 130.51859375 39.18359375 130.43359375 C39.51359375 131.09359375 39.84359375 131.75359375 40.18359375 132.43359375 C40.3254259 134.85336283 40.40831992 137.24765774 40.44897461 139.66967773 C40.46545485 140.4278822 40.48193508 141.18608667 40.49891472 141.96726704 C40.55347603 144.53799984 40.60098233 147.10881434 40.6484375 149.6796875 C40.68607207 151.53843881 40.72406098 153.39718298 40.76237488 155.25592041 C40.86650298 160.38141035 40.96397337 165.50700824 41.05997467 170.6326561 C41.12101495 173.86691839 41.1838339 177.10114121 41.24725342 180.33535767 C42.02788645 220.19717321 42.66480442 260.06136493 43.27497339 299.92609262 C43.30860324 302.12171316 43.34233035 304.31733219 43.37607956 306.5129509 C43.50542333 314.93405742 43.63300462 323.35518809 43.75805092 331.77635956 C43.79636668 334.34952065 43.83503017 336.92267659 43.87407494 339.49582672 C43.98967535 347.14162456 44.09456422 354.78744016 44.18359375 362.43359375 C44.19457848 363.2917783 44.2055632 364.14996284 44.2168808 365.03415298 C44.24351631 367.27643803 44.26207129 369.5185962 44.27685547 371.76098633 C44.28659393 372.94090652 44.2963324 374.12082672 44.30636597 375.33650208 C43.93600023 384.67946804 40.12796761 391.41256293 33.671875 397.96875 C27.39153956 403.62270028 20.69612507 403.87794356 12.6015625 403.75 C5.48062105 403.09080428 0.74692418 399.88423843 -3.81640625 394.43359375 C-10.79855547 384.06984613 -11.00937341 373.40068895 -10.77807617 361.33154297 C-10.76188516 360.24816115 -10.74569414 359.16477934 -10.72901249 358.04856777 C-10.6737514 354.44502975 -10.6103326 350.84168353 -10.546875 347.23828125 C-10.50560773 344.65969079 -10.46482753 342.0810925 -10.42449951 339.50248718 C-10.32602495 333.26752515 -10.22139679 327.03268131 -10.1145016 320.79785854 C-10.02811728 315.7523877 -9.94404378 310.7068832 -9.86160278 305.66134644 C-9.8498811 304.94407373 -9.83815941 304.22680103 -9.82608253 303.48779279 C-9.80232074 302.03319136 -9.77856371 300.57858985 -9.75481141 299.12398827 C-9.53587185 285.73331049 -9.30995967 272.34275803 -9.08069432 258.95225346 C-8.89554364 248.13538722 -8.71446871 237.31846158 -8.53710938 226.50146484 C-8.32291641 213.44223259 -8.10336369 200.3830986 -7.87905884 187.32403564 C-7.79521514 182.43844375 -7.71328891 177.55282528 -7.63290405 172.66717529 C-7.53868328 166.95601534 -7.43972886 161.24495729 -7.33695221 155.53394508 C-7.30016348 153.44760798 -7.26502111 151.36124113 -7.23162079 149.27484703 C-7.1861349 146.45079044 -7.13476186 143.62690305 -7.08178711 140.80297852 C-7.06981891 139.9746092 -7.0578507 139.14623989 -7.04551983 138.29276848 C-6.9305873 132.66195585 -6.9305873 132.66195585 -5.81640625 130.43359375 C-6.49703125 130.35109375 -7.17765625 130.26859375 -7.87890625 130.18359375 C-16.73020068 127.92368879 -24.12842797 121.41998147 -28.7779026 113.72014046 C-30.61423973 109.67694751 -30.52063438 105.74397185 -30.47924805 101.36499023 C-30.48961594 100.38995544 -30.49998383 99.41492065 -30.51066589 98.41033936 C-30.53762842 95.20801939 -30.52809817 92.00707903 -30.515625 88.8046875 C-30.52153734 86.56844198 -30.5287855 84.33219962 -30.53730774 82.09596252 C-30.54916883 77.41805479 -30.54251034 72.74062347 -30.52319336 68.06274414 C-30.50028868 62.07474722 -30.52711464 56.08816758 -30.56825542 50.10031033 C-30.59385314 45.48564551 -30.59124839 40.87131906 -30.58036232 36.25660896 C-30.57887776 34.04904962 -30.58654093 31.84146409 -30.6036129 29.63397026 C-30.62362204 26.54604381 -30.6051644 23.46061488 -30.5769043 20.37280273 C-30.59062073 19.46611343 -30.60433716 18.55942413 -30.61846924 17.6252594 C-30.51542092 11.97869431 -29.36557507 8.93846453 -25.48781204 4.80198097 C-18.40413663 -0.99745503 -8.62585428 -0.02438941 0 0 Z M-13.81640625 17.43359375 C-13.90914068 28.54290497 -13.98018888 39.6521239 -14.02365494 50.76174355 C-14.04451791 55.92056589 -14.07281222 61.07912317 -14.11816406 66.23779297 C-14.16166749 71.21744767 -14.18555306 76.19684761 -14.19591522 81.1766777 C-14.20329849 83.07528061 -14.21771639 84.97386977 -14.23932648 86.87236404 C-14.26842033 89.53451778 -14.27235977 92.19562268 -14.27050781 94.85791016 C-14.28488892 95.64050201 -14.29927002 96.42309387 -14.31408691 97.22940063 C-14.27512751 102.41485472 -13.18560444 105.28570363 -9.81640625 109.43359375 C-8.21693211 110.9256833 -8.21693211 110.9256833 -6.50390625 111.91796875 C-5.90320313 112.29566406 -5.3025 112.67335938 -4.68359375 113.0625 C-3.75933594 113.61744141 -3.75933594 113.61744141 -2.81640625 114.18359375 C-2.20023438 114.56902344 -1.5840625 114.95445312 -0.94921875 115.3515625 C1.5044491 116.8732578 3.92755236 118.31736443 6.55859375 119.51171875 C8.18359375 120.43359375 8.18359375 120.43359375 9.18359375 123.43359375 C9.27454992 124.79936131 9.31148664 126.16914125 9.31298828 127.53793335 C9.31609512 128.37605938 9.31920197 129.21418541 9.32240295 130.0777092 C9.32042404 130.99743137 9.31844513 131.91715355 9.31640625 132.86474609 C9.31777084 133.84007923 9.31913544 134.81541237 9.32054138 135.82030106 C9.32260287 139.09507665 9.31613325 142.36976442 9.30859375 145.64453125 C9.30737518 146.78775219 9.30615662 147.93097313 9.30490112 149.10883713 C9.27310407 174.93707913 8.8518727 200.75842592 8.39956093 226.58203125 C7.34075636 286.03901038 7.34075636 286.03901038 6.82910156 345.50213623 C6.81748374 348.59671252 6.79676734 351.69100188 6.76757812 354.78546143 C6.72920251 358.93396265 6.72327664 363.08178975 6.72265625 367.23046875 C6.70122055 368.99259201 6.70122055 368.99259201 6.67935181 370.79031372 C6.71443303 376.95198379 6.95397307 380.79312941 11.18359375 385.43359375 C14.33270854 387.00815114 16.70368191 386.78158493 20.18359375 386.43359375 C23.31946882 384.75415844 25.77511265 382.77120717 26.84725857 379.260355 C27.27973875 375.62553388 27.26113769 372.0447268 27.18995667 368.39291382 C27.17856043 367.58749732 27.1671642 366.78208081 27.15542263 365.95225775 C27.11595171 363.25371252 27.06881257 360.55535592 27.02172852 357.85693359 C26.99184736 355.91927297 26.96245087 353.98160483 26.9335022 352.04393005 C26.87001697 347.86210042 26.80315961 343.68034286 26.73373604 339.49860764 C26.62313505 332.83050524 26.52048796 326.16229446 26.41893005 319.49404907 C26.21945245 306.46730911 26.01204131 293.44070132 25.80369568 280.41410065 C25.54150997 264.00297716 25.28267117 247.59180499 25.03136295 231.18051112 C24.9467055 225.6663514 24.86040106 220.15222916 24.76974678 214.63816452 C24.25364098 183.23428122 24.09509077 151.84161908 24.18359375 120.43359375 C24.94422119 120.13864014 25.70484863 119.84368652 26.48852539 119.53979492 C29.7295132 118.20951901 32.61635508 116.54752129 35.62109375 114.74609375 C36.71292969 114.10285156 37.80476563 113.45960938 38.9296875 112.796875 C43.06531389 109.99492415 47.35795812 106.42987071 48.7271862 101.46086693 C48.92489084 99.2719196 48.93865222 97.15679386 48.88061523 94.9597168 C48.88309769 94.14260727 48.88558014 93.32549774 48.88813782 92.48362732 C48.88905057 89.80322249 48.84737953 87.12534763 48.8046875 84.4453125 C48.79602664 82.57681751 48.78988455 80.7083093 48.78614807 78.83979797 C48.76896371 73.93615782 48.71489449 69.03357287 48.65386963 64.13031006 C48.6101632 60.11753917 48.59270084 56.10485411 48.57659817 52.09189129 C48.55702606 47.31380385 48.52646106 42.53581503 48.4921875 37.7578125 C48.4857617 36.84362738 48.4793359 35.92944225 48.47271538 34.98755455 C48.45179741 32.41176596 48.42350858 29.83618058 48.39233398 27.26049805 C48.38650299 26.49322388 48.380672 25.72594971 48.37466431 24.9354248 C48.38904495 21.05643039 48.38904495 21.05643039 47.18359375 17.43359375 C43.88359375 17.43359375 40.58359375 17.43359375 37.18359375 17.43359375 C37.17328629 18.3790657 37.16297882 19.32453766 37.15235901 20.29866028 C37.05467861 29.20105747 36.95194958 38.10338394 36.84425449 47.00566578 C36.78904795 51.58261008 36.73563153 56.1595608 36.6862793 60.73657227 C36.63860235 65.15214831 36.58625825 69.56764643 36.530653 73.9831295 C36.51024456 75.66923779 36.49152897 77.35536744 36.47451973 79.04151344 C36.4504423 81.39990596 36.4203923 83.75815135 36.38891602 86.11645508 C36.38316055 86.81632538 36.37740509 87.51619568 36.37147522 88.23727417 C36.32579721 91.24053258 36.14151083 93.5598425 35.18359375 96.43359375 C33.74824534 96.65626835 32.3101385 96.86121281 30.87109375 97.05859375 C30.07058594 97.17460937 29.27007812 97.290625 28.4453125 97.41015625 C26.18359375 97.43359375 26.18359375 97.43359375 23.18359375 95.43359375 C21.74338649 91.86426408 22.02346563 87.98283176 21.97827148 84.18652344 C21.96837189 83.46417511 21.95847229 82.74182678 21.94827271 81.99758911 C21.91675891 79.61691533 21.89194045 77.23622162 21.8671875 74.85546875 C21.84660922 73.20208221 21.82561252 71.54870084 21.80421448 69.89532471 C21.74908401 65.54870792 21.69963502 61.20204437 21.65136719 56.85534668 C21.60108618 52.41784515 21.54543459 47.98041133 21.49023438 43.54296875 C21.38276322 34.83990105 21.28129384 26.1367766 21.18359375 17.43359375 C18.21359375 17.43359375 15.24359375 17.43359375 12.18359375 17.43359375 C12.1755069 18.36431702 12.16742004 19.29504028 12.15908813 20.25396729 C12.08161519 29.02366473 11.99387298 37.79320724 11.89606667 46.56270218 C11.84611332 51.07122976 11.79978318 55.57973403 11.76171875 60.08837891 C11.72485381 64.43918494 11.67849054 68.78979542 11.62553024 73.14043427 C11.60699272 74.80058106 11.59188237 76.46076977 11.58024979 78.12097931 C11.56337626 80.44576559 11.53433898 82.77010463 11.50244141 85.09472656 C11.50028122 85.78165085 11.49812103 86.46857513 11.49589539 87.17631531 C11.43367293 90.72434251 11.25020774 93.47738751 9.18359375 96.43359375 C7.125 97.1484375 7.125 97.1484375 4.74609375 97.37109375 C3.96363281 97.46261719 3.18117188 97.55414063 2.375 97.6484375 C0.18359375 97.43359375 0.18359375 97.43359375 -1.42634583 96.38322449 C-3.51459863 93.45434328 -3.25579729 90.49295061 -3.2487793 87.0246582 C-3.25897095 86.27319519 -3.2691626 85.52173218 -3.27966309 84.74749756 C-3.30985513 82.26388148 -3.31906825 79.78065068 -3.328125 77.296875 C-3.34496713 75.57479057 -3.36311674 73.85271846 -3.38252258 72.13066101 C-3.43007951 67.59825493 -3.45985193 63.06589881 -3.48596191 58.5333252 C-3.5157388 53.90818408 -3.56227895 49.28321527 -3.60742188 44.65820312 C-3.69351968 35.58342336 -3.76083608 26.50860819 -3.81640625 17.43359375 C-7.11640625 17.43359375 -10.41640625 17.43359375 -13.81640625 17.43359375 Z " fill="#FEFEFE" transform="translate(29.81640625,64.56640625)"/>
<path d="M0 0 C5.31892944 5.72618781 4.52768806 11.91494074 4.42578125 19.3984375 C4.42115591 20.78450573 4.4182519 22.17058058 4.41691589 23.55665588 C4.40794457 27.36058135 4.37345219 31.1639107 4.33456421 34.96763229 C4.29717757 39.04678973 4.283211 43.12604056 4.265625 47.20532227 C4.2168132 57.16693766 4.12716793 67.12802217 4.02875519 77.08925629 C3.99965721 80.03469937 3.97118024 82.98014797 3.94281006 85.92559814 C3.76385313 104.40799746 3.56836938 122.89021222 3.36108398 141.37231445 C2.92998056 179.98290496 2.60227904 218.58257007 3.43035889 257.19042969 C3.97028784 282.36503138 4.17231118 307.53633415 4.23217773 332.71633911 C4.24251407 336.93553401 4.25990857 341.15460731 4.28344727 345.37374878 C4.31083984 350.3816114 4.3231602 355.38929286 4.32407379 360.39722824 C4.32675245 362.26539924 4.33451445 364.13357058 4.3476181 366.00169754 C4.3646619 368.58345354 4.36288127 371.16454846 4.35644531 373.74633789 C4.36566261 374.4987548 4.37487991 375.2511717 4.38437653 376.02638912 C4.33354064 382.43816843 2.34071109 387.07299498 -2.125 391.625 C-8.12030054 397.24637327 -13.7318197 399.22430493 -21.9375 399.5625 C-30.3074452 399.29162799 -36.66787457 396.83800535 -42.4375 390.6875 C-48.58552403 383.40163272 -48.41984239 374.88901951 -48.328125 365.87109375 C-48.32592705 363.94702446 -48.32592705 363.94702446 -48.32368469 361.98408508 C-48.31879992 358.5190194 -48.2946804 355.05434266 -48.26610184 351.58940125 C-48.24453182 348.7067154 -48.23383138 345.82402911 -48.22300434 342.94128609 C-48.15337271 324.87588748 -47.94126848 306.81162418 -47.5625 288.75 C-47.54312378 287.82395966 -47.52374756 286.89791931 -47.50378418 285.94381714 C-47.39147328 280.80616987 -47.2500815 275.67040912 -47.07794189 270.53442383 C-46.99540656 267.85063585 -46.93947125 265.16686077 -46.88232422 262.48242188 C-46.82765991 260.68095393 -46.77186966 258.87951973 -46.71484375 257.078125 C-46.70288467 256.25423279 -46.6909256 255.43034058 -46.67860413 254.58148193 C-46.4788472 249.30718666 -45.49235794 246.18869829 -42 242 C-38.86128812 240.43064406 -36.46144178 240.64798897 -33 241 C-29.7952847 243.51408827 -28.19148911 244.99874329 -27.41650391 249.05097961 C-27.43632324 250.19342636 -27.45614258 251.33587311 -27.4765625 252.51293945 C-27.48743896 253.82328659 -27.49831543 255.13363373 -27.50952148 256.48368835 C-27.54739813 257.92273567 -27.58591097 259.36176636 -27.625 260.80078125 C-27.64791265 262.3141241 -27.6687811 263.82749911 -27.68774414 265.34089661 C-27.74600798 269.39574267 -27.83752008 273.44914644 -27.93890381 277.50312042 C-27.99942302 279.97641981 -28.05296139 282.44976697 -28.10400391 284.92327881 C-28.33000108 295.82299203 -28.61696271 306.72049391 -28.92712402 317.61810303 C-29.12199728 324.48877276 -29.30970731 331.35963779 -29.49563599 338.23055458 C-29.56010157 340.58053789 -29.62737387 342.93042703 -29.69506836 345.28031921 C-29.81484808 349.5198963 -29.91226493 353.7596522 -30 358 C-30.0166571 358.70341648 -30.03331421 359.40683296 -30.05047607 360.13156509 C-30.09573595 362.18967276 -30.12623721 364.24747838 -30.15234375 366.3059082 C-30.17159912 367.49021927 -30.19085449 368.67453033 -30.21069336 369.89472961 C-29.91471864 374.25690565 -28.66051814 376.59121114 -26 380 C-20.38232902 380.27415488 -20.38232902 380.27415488 -15 379 C-13.84852642 375.54557925 -13.83822222 372.46069024 -13.83203125 368.8671875 C-13.825951 367.74735725 -13.825951 367.74735725 -13.81974792 366.60490417 C-13.80997127 364.02822946 -13.81042 361.45169157 -13.8125 358.875 C-13.81141235 357.46974564 -13.81141235 357.46974564 -13.81030273 356.03610229 C-13.81133416 343.53019633 -14.0213302 331.04154038 -14.44921875 318.54296875 C-15.85700551 276.94254572 -16.21543093 235.37120419 -16.1875 193.75 C-16.18701959 193.02660163 -16.18653918 192.30320327 -16.18604422 191.55788374 C-16.1548858 148.47004672 -15.99731108 105.38567628 -15.06964111 62.30645752 C-14.97550172 57.83685786 -14.89213228 53.36707678 -14.80809021 48.89727783 C-14.71201949 43.86887518 -14.6067011 38.84068639 -14.5 33.8125 C-14.48212433 32.92681335 -14.46424866 32.04112671 -14.4458313 31.12860107 C-14.39611496 28.73792367 -14.33995908 26.34750238 -14.28125 23.95703125 C-14.25095703 22.64710205 -14.22066406 21.33717285 -14.18945312 19.98754883 C-14 17 -14 17 -13 15 C-15.27208206 16.1225346 -17.54267645 17.24791521 -19.8125 18.375 C-20.45509766 18.69210938 -21.09769531 19.00921875 -21.75976562 19.3359375 C-24.63194461 20.76458611 -27.3267821 22.21785473 -30 24 C-30.99 24 -31.98 24 -33 24 C-33.268125 24.71671875 -33.53625 25.4334375 -33.8125 26.171875 C-35.01133275 29.02698983 -36.43787406 31.57876464 -38 34.25 C-44.14272952 45.39957719 -44.08002297 58.08849123 -44.77197266 70.55297852 C-44.84199997 71.78014587 -44.91202728 73.00731323 -44.98417664 74.27166748 C-45.17407559 77.6123673 -45.36170529 80.95317651 -45.54782915 84.29408765 C-45.66445345 86.38591857 -45.78167982 88.47771492 -45.89908981 90.56950188 C-46.26708793 97.12823272 -46.63315682 103.68706675 -46.99631178 110.24606758 C-47.41417545 117.79310731 -47.83837335 125.3397556 -48.26808321 132.88612992 C-48.60099683 138.73918646 -48.92835563 144.59253734 -49.25152814 150.44613975 C-49.44421166 153.93408765 -49.63917855 157.42187071 -49.83992386 160.9093647 C-50.06356785 164.79795394 -50.27568309 168.68712649 -50.48681641 172.57641602 C-50.55429581 173.7210582 -50.62177521 174.86570038 -50.69129944 176.04502869 C-51.61320719 186.48351155 -51.61320719 186.48351155 -47.84375 195.75 C-44.84354986 198.12378473 -41.80972103 200.08221772 -38.5 202 C-34.04331138 204.58238032 -30.39487587 207.09245411 -27 211 C-26.44651362 214.87440468 -26.70031437 217.78044012 -29 221 C-31.67665924 222.98271055 -34.50589141 223.56052892 -37.83203125 223.42578125 C-49.3440809 221.16485618 -59.92279975 211.91833985 -66.6394043 202.59692383 C-69.98403641 197.08859483 -69.63605463 191.75627573 -69.4609375 185.47265625 C-69.44259857 184.1878688 -69.42425964 182.90308136 -69.40536499 181.57936096 C-69.0712297 162.23732204 -67.87100598 142.90356872 -66.79876709 123.59204102 C-66.56727482 119.38956594 -66.34344263 115.18669828 -66.11977005 110.98380089 C-65.49079026 99.1689515 -64.83205582 87.35604664 -64.14674377 75.54433441 C-64.00827917 73.14354946 -63.87274883 70.74261862 -63.73815918 68.34161377 C-63.51400278 64.36356176 -63.27087106 60.38683319 -63.0234375 56.41015625 C-62.96330475 55.32625107 -62.903172 54.24234589 -62.84121704 53.12559509 C-61.82839264 37.74925217 -59.14997668 25.33001719 -48 14.4375 C-47.33790527 13.78491211 -46.67581055 13.13232422 -45.99365234 12.45996094 C-35.4674772 2.37121752 -14.02323864 -11.29649779 0 0 Z " fill="#FEFEFE" transform="translate(508,69)"/>
<path d="M0 0 C1.52947266 0.87205078 1.52947266 0.87205078 3.08984375 1.76171875 C29.41827977 18.05354292 47.14806094 45.09714241 54.97949219 74.70361328 C61.85461906 104.20990358 56.70641605 137.19424525 40.96484375 163.02734375 C23.25561951 189.82002695 -1.43575961 210.12294502 -33.1796875 216.93359375 C-64.64790648 223.22651381 -97.73706181 218.65989247 -125 201 C-130.63748648 197.02614141 -135.87538548 192.60926712 -141 188 C-141.56090332 187.4956543 -142.12180664 186.99130859 -142.69970703 186.47167969 C-161.10889183 169.624857 -173.89156292 147.02570041 -176.91796875 122.05078125 C-177.0329035 117.77630303 -176.38310626 115.53357135 -174 112 C-170.32757535 110.77585845 -167.8577463 110.53440993 -164 111 C-158.96441169 115.75453222 -157.51384045 120.82732726 -155.6875 127.375 C-148.11270562 152.64172312 -134.54098528 173.92988729 -111 187 C-87.61156592 199.48920533 -58.65638316 205.23870688 -32.75390625 197.3828125 C-31.49864894 196.93275765 -30.24748619 196.47116715 -29 196 C-28.28054199 195.73155273 -27.56108398 195.46310547 -26.81982422 195.18652344 C-8.34459838 188.07975925 10.07016921 175.87517831 21 159 C21.63421875 158.06929687 22.2684375 157.13859375 22.921875 156.1796875 C37.13320402 134.43528557 41.51837586 107.95429692 36.8125 82.4375 C31.52227355 58.5335138 18.87015078 34.83152566 -2.09960938 21.17529297 C-25.72073299 6.56685398 -50.89800274 -0.84721007 -78.75 4.0625 C-104.01247254 10.097424 -128.38050659 22.97916929 -142.796875 45.296875 C-149.58954203 56.44351075 -153.99482523 68.19109184 -157.6550293 80.68945312 C-157.91968994 81.58212891 -158.18435059 82.47480469 -158.45703125 83.39453125 C-158.68366455 84.18706299 -158.91029785 84.97959473 -159.14379883 85.79614258 C-160.10277073 88.26453133 -161.25301655 90.01506919 -163 92 C-167.06854331 93.01900901 -170.85402596 92.58696231 -174.5625 90.6875 C-178.60157513 83.13618562 -175.65116001 73.70382802 -173.3203125 65.9609375 C-163.40454603 35.23881619 -141.25596009 9.76681713 -112.5715332 -4.92993164 C-77.31285062 -22.01345095 -33.63837842 -19.47285186 0 0 Z " fill="#FEFEFE" transform="translate(317,165)"/>
<path d="M0 0 C2.73010737 1.07767396 3.57517996 2.06496895 4.77734375 4.7109375 C5.81908014 8.8018439 5.32141682 11.34076755 3.46875 15.140625 C1.18885915 18.90927911 -1.3898726 22.45567549 -4 26 C-4.50950195 26.7027002 -5.01900391 27.40540039 -5.54394531 28.12939453 C-18.21677168 45.57302984 -18.21677168 45.57302984 -22.21875 46.53125 C-25.94979214 46.48013983 -28.32337526 46.41257606 -31.5625 44.4375 C-33.55786018 41.05406318 -33.96273627 38.74169839 -33 35 C-29.48596657 27.03316609 -23.97022743 20.00743475 -18.875 13 C-18.2773584 12.17467773 -17.6797168 11.34935547 -17.06396484 10.49902344 C-8.48350263 -1.07971852 -8.48350263 -1.07971852 0 0 Z " fill="#FEFFFE" transform="translate(388,44)"/>
<path d="M0 0 C1.55024464 3.10048928 1.28992015 5.57894218 1 9 C-0.97915698 12.1469534 -2.2982262 13.71968529 -5.77734375 15.109375 C-26.63361752 19.33734644 -26.63361752 19.33734644 -31.30859375 16.6953125 C-33.7950606 14.20310324 -33.99118975 12.07929225 -34.375 8.625 C-34 5 -34 5 -32.0625 2.1875 C-28.11543881 -0.63182942 -24.74219871 -1.33686327 -20 -2 C-19.21753906 -2.11085938 -18.43507813 -2.22171875 -17.62890625 -2.3359375 C-5.227746 -3.88346846 -5.227746 -3.88346846 0 0 Z " fill="#FEFEFE" transform="translate(406,95)"/>
<path d="M0 0 C4.64973414 3.7141598 5.97387248 7.15951309 6.8125 12.875 C6.93302734 13.55691406 7.05355469 14.23882812 7.17773438 14.94140625 C9.25088652 27.38031915 9.25088652 27.38031915 6 32 C2.30064517 34.46623656 -0.70923514 34.77937721 -5 34 C-8.89560933 31.45938522 -10.24881587 28.96625919 -11.25 24.5625 C-11.53323853 22.71311903 -11.77940566 20.85789455 -12 19 C-12.15726562 17.81664063 -12.31453125 16.63328125 -12.4765625 15.4140625 C-13.50464429 5.79847398 -13.50464429 5.79847398 -11.1953125 2.14453125 C-7.52714304 -1.43878731 -4.76421888 -1.33398129 0 0 Z " fill="#FEFFFE" transform="translate(338,48)"/>
</svg>
