<svg xmlns="http://www.w3.org/2000/svg" xml:space="preserve" width="1.70666in" height="1.70666in" version="1.1" style="shape-rendering:geometricPrecision; text-rendering:geometricPrecision; image-rendering:optimizeQuality; fill-rule:evenodd; clip-rule:evenodd" viewBox="0 0 1707 1707" xmlns:xlink="http://www.w3.org/1999/xlink">
 <defs>
  <style type="text/css">
   
    .fil0 {fill:black}
   
  </style>
 </defs>
 <g id="Layer_x0020_1">
  <metadata id="CorelCorpID_0Corel-Layer"></metadata>
  <g id="_306371616">
   <g>
    <g>
     <path class="fil0" d="M570 1081c-72,0 -184,-29 -315,-164 -7,-8 -165,-179 -192,-386 -2,-11 4,-21 14,-25 10,-4 21,-1 27,8 53,68 154,99 262,132 180,55 384,118 337,387 -1,6 -5,12 -10,15 -2,2 -48,33 -123,33zm-446 -486c46,161 164,288 165,290 119,123 218,149 281,149 44,0 75,-13 88,-20 34,-219 -124,-268 -306,-323 -82,-25 -165,-51 -228,-96z" id="id_101" style="fill: rgb(255, 255, 255);"></path>
    </g>
    <g>
     <path class="fil0" d="M783 1215c-9,0 -17,-6 -21,-15 -1,-2 -116,-264 -453,-445 -11,-6 -15,-20 -9,-31 6,-12 20,-16 31,-10 353,189 469,457 474,468 5,12 -1,26 -12,31 -3,1 -6,2 -10,2z" id="id_102" style="fill: rgb(255, 255, 255);"></path>
    </g>
    <g>
     <path class="fil0" d="M925 1693c-1,0 -1,0 -2,0 -80,-6 -140,-33 -178,-78 -37,-45 -53,-107 -49,-186l-393 0c-13,0 -24,-11 -24,-23l0 -475c0,-13 11,-23 24,-23 13,0 23,10 23,23l0 451 395 0c7,0 13,3 18,8 4,5 6,11 5,18 -8,78 5,138 37,177 30,35 79,56 145,62 174,-1 315,-142 315,-316l0 -959c0,-12 10,-23 23,-23 13,0 24,11 24,23l0 959c0,200 -163,362 -363,362zm-622 -1019c-13,0 -24,-10 -24,-23l0 -275c0,-200 163,-363 363,-363l832 0c13,0 23,11 23,24 0,13 -10,23 -23,23l-832 0c-174,0 -316,142 -316,316l0 275c0,13 -10,23 -23,23z" id="id_103" style="fill: rgb(255, 255, 255);"></path>
    </g>
    <g>
     <path class="fil0" d="M925 1693c0,0 0,0 0,0l-698 0c-125,0 -227,-101 -227,-227l0 -60c0,-13 10,-24 23,-24l698 0c7,0 13,3 18,8 4,5 6,11 5,18 -8,78 5,138 37,177 30,35 79,56 145,62 13,0 23,10 23,23 0,13 -11,23 -24,23zm-878 -264l0 37c0,100 81,181 180,181l553 0c-13,-10 -25,-20 -35,-32 -37,-45 -53,-107 -49,-186l-649 0z" id="id_104" style="fill: rgb(255, 255, 255);"></path>
    </g>
    <g>
     <path class="fil0" d="M1683 396l-419 0c-13,0 -23,-11 -23,-24l0 -126c0,-128 104,-233 233,-233 128,0 233,105 233,233l0 126c0,13 -11,24 -24,24zm-395 -47l372 0 0 -103c0,-103 -84,-186 -186,-186 -103,0 -186,83 -186,186l0 103 0 0z" id="id_105" style="fill: rgb(255, 255, 255);"></path>
    </g>
    <g>
     <path class="fil0" d="M1102 274l-637 0c-13,0 -23,-10 -23,-23 0,-13 10,-23 23,-23l637 0c13,0 23,10 23,23 0,13 -10,23 -23,23z" id="id_106" style="fill: rgb(255, 255, 255);"></path>
    </g>
    <g>
     <path class="fil0" d="M1102 462l-637 0c-13,0 -23,-10 -23,-23 0,-13 10,-23 23,-23l637 0c13,0 23,10 23,23 0,13 -10,23 -23,23z" id="id_107" style="fill: rgb(255, 255, 255);"></path>
    </g>
    <g>
     <path class="fil0" d="M1102 650l-519 0c-13,0 -23,-10 -23,-23 0,-13 10,-23 23,-23l519 0c13,0 23,10 23,23 0,13 -10,23 -23,23z" id="id_108" style="fill: rgb(255, 255, 255);"></path>
    </g>
    <g>
     <path class="fil0" d="M1102 838l-461 0c-12,0 -23,-10 -23,-23 0,-13 11,-23 23,-23l461 0c13,0 23,10 23,23 0,13 -10,23 -23,23z" id="id_109" style="fill: rgb(255, 255, 255);"></path>
    </g>
    <g>
     <path class="fil0" d="M1102 1026l-419 0c-12,0 -23,-10 -23,-23 0,-13 11,-23 23,-23l419 0c13,0 23,10 23,23 0,13 -10,23 -23,23z" id="id_110" style="fill: rgb(255, 255, 255);"></path>
    </g>
    <g>
     <path class="fil0" d="M1102 1215l-637 0c-13,0 -23,-11 -23,-24 0,-13 10,-23 23,-23l637 0c13,0 23,10 23,23 0,13 -10,24 -23,24z" id="id_111" style="fill: rgb(255, 255, 255);"></path>
    </g>
   </g>
  </g>
 </g>
</svg>